<svg width="70" height="70" viewBox="0 0 70 70" fill="none" xmlns="http://www.w3.org/2000/svg">
<path d="M30.1876 49.5837L46.6667 33.1045L42.4376 28.8753L30.1147 41.1982L23.9897 35.0732L19.8334 39.2295L30.1876 49.5837ZM18.9584 58.3337C14.5348 58.3337 10.7558 56.8024 7.62133 53.7399C4.48494 50.6774 2.91675 46.9344 2.91675 42.5107C2.91675 38.7191 4.05911 35.3406 6.34383 32.3753C8.62855 29.41 11.6181 27.5142 15.3126 26.6878C16.5279 22.2156 18.9584 18.5941 22.6042 15.8232C26.2501 13.0524 30.382 11.667 35.0001 11.667C40.6876 11.667 45.5117 13.6474 49.4726 17.6082C53.4354 21.571 55.4167 26.3962 55.4167 32.0837C58.7709 32.4725 61.5544 33.9182 63.7672 36.4207C65.978 38.9252 67.0834 41.8545 67.0834 45.2087C67.0834 48.8545 65.8079 51.9539 63.2567 54.507C60.7037 57.0581 57.6042 58.3337 53.9584 58.3337H18.9584Z" fill="black"/>
</svg>
