<svg width="180" height="240" viewBox="0 0 180 240" fill="none" xmlns="http://www.w3.org/2000/svg">
<g id="Group">
<path id="Vector" d="M52.845 186.36C54.945 185.13 57.24 183.93 59.73 182.79C57.6266 185.926 55.374 188.96 52.98 191.88C48.78 196.935 45.51 199.62 43.455 200.46C43.2844 200.532 43.109 200.592 42.93 200.64C42.7803 200.432 42.6498 200.211 42.54 199.98C41.7 198.33 41.73 196.74 43.14 194.58C44.73 192.105 47.925 189.27 52.845 186.36ZM89.67 161.655C87.885 162.03 86.115 162.405 84.33 162.825C86.9739 157.645 89.4749 152.393 91.83 147.075C94.2011 151.469 96.7533 155.763 99.48 159.945C96.225 160.425 92.94 160.995 89.67 161.655ZM127.545 175.74C125.215 173.861 123.034 171.805 121.02 169.59C124.44 169.665 127.53 169.92 130.2 170.4C134.955 171.255 137.19 172.605 137.97 173.535C138.216 173.795 138.355 174.137 138.36 174.495C138.307 175.553 137.999 176.583 137.46 177.495C137.158 178.226 136.672 178.866 136.05 179.355C135.74 179.545 135.376 179.624 135.015 179.58C133.665 179.535 131.145 178.59 127.545 175.74ZM94.17 104.55C93.57 108.21 92.55 112.41 91.17 116.985C90.6616 115.272 90.2163 113.541 89.835 111.795C88.695 106.5 88.53 102.345 89.145 99.465C89.715 96.81 90.795 95.745 92.085 95.22C92.7769 94.915 93.5097 94.7129 94.26 94.62C94.455 95.07 94.68 96 94.74 97.59C94.815 99.42 94.635 101.745 94.17 104.565V104.55Z" fill="#E2E8F0"/>
<path id="Vector_2" fill-rule="evenodd" clip-rule="evenodd" d="M30 0H109.395C113.373 0.000849561 117.188 1.58176 120 4.395L175.605 60C178.418 62.8124 179.999 66.6271 180 70.605V210C180 217.956 176.839 225.587 171.213 231.213C165.587 236.839 157.956 240 150 240H30C22.0435 240 14.4129 236.839 8.78679 231.213C3.1607 225.587 0 217.956 0 210V30C0 22.0435 3.1607 14.4129 8.78679 8.7868C14.4129 3.16071 22.0435 0 30 0ZM112.5 22.5V52.5C112.5 56.4782 114.08 60.2936 116.893 63.1066C119.706 65.9196 123.522 67.5 127.5 67.5H157.5L112.5 22.5ZM32.475 205.02C33.825 207.72 35.925 210.165 39.045 211.305C42.15 212.43 45.225 211.905 47.745 210.855C52.515 208.905 57.27 204.315 61.635 199.065C66.63 193.05 71.88 185.16 76.95 176.415C86.738 173.514 96.7613 171.476 106.905 170.325C111.405 176.07 116.055 181.02 120.555 184.575C124.755 187.875 129.6 190.62 134.565 190.83C137.269 190.964 139.947 190.239 142.215 188.76C144.54 187.245 146.265 185.055 147.525 182.52C148.875 179.805 149.7 176.97 149.595 174.075C149.5 171.221 148.443 168.482 146.595 166.305C143.205 162.255 137.655 160.305 132.195 159.33C125.572 158.304 118.851 158.052 112.17 158.58C106.528 150.604 101.608 142.14 97.47 133.29C101.22 123.39 104.025 114.03 105.27 106.38C105.81 103.11 106.095 99.99 105.99 97.17C105.971 94.3708 105.32 91.612 104.085 89.1C103.373 87.7137 102.362 86.5031 101.125 85.5561C99.887 84.6091 98.4542 83.9495 96.93 83.625C93.9 82.98 90.78 83.625 87.915 84.78C82.26 87.03 79.275 91.83 78.15 97.125C77.055 102.225 77.55 108.165 78.84 114.165C80.16 120.255 82.41 126.885 85.29 133.59C80.6833 145.047 75.3629 156.204 69.36 166.995C61.6296 169.427 54.1782 172.67 47.13 176.67C41.58 179.97 36.645 183.87 33.675 188.475C30.525 193.365 29.55 199.185 32.475 205.02Z" fill="#E2E8F0"/>
</g>
</svg>
