<svg width="240" height="240" viewBox="0 0 240 240" fill="none" xmlns="http://www.w3.org/2000/svg">
<g id="ph:video-fill" opacity="0.2">
<path id="Vector" d="M217.5 195C217.5 196.989 216.71 198.897 215.303 200.303C213.897 201.71 211.989 202.5 210 202.5H30C28.0109 202.5 26.1032 201.71 24.6967 200.303C23.2902 198.897 22.5 196.989 22.5 195C22.5 193.011 23.2902 191.103 24.6967 189.697C26.1032 188.29 28.0109 187.5 30 187.5H210C211.989 187.5 213.897 188.29 215.303 189.697C216.71 191.103 217.5 193.011 217.5 195ZM217.5 52.5V157.5C217.5 161.478 215.92 165.294 213.107 168.107C210.294 170.92 206.478 172.5 202.5 172.5H37.5C33.5218 172.5 29.7064 170.92 26.8934 168.107C24.0804 165.294 22.5 161.478 22.5 157.5V52.5C22.5 48.5218 24.0804 44.7064 26.8934 41.8934C29.7064 39.0804 33.5218 37.5 37.5 37.5H202.5C206.478 37.5 210.294 39.0804 213.107 41.8934C215.92 44.7064 217.5 48.5218 217.5 52.5ZM153.75 105C153.75 103.738 153.431 102.496 152.823 101.39C152.215 100.284 151.337 99.3488 150.272 98.6719L109.022 72.4219C107.888 71.7015 106.582 71.2989 105.239 71.2561C103.896 71.2133 102.567 71.5319 101.39 72.1786C100.212 72.8252 99.23 73.7762 98.5458 74.9322C97.8616 76.0882 97.5004 77.4067 97.5 78.75V131.25C97.5004 132.593 97.8616 133.912 98.5458 135.068C99.23 136.224 100.212 137.175 101.39 137.821C102.567 138.468 103.896 138.787 105.239 138.744C106.582 138.701 107.888 138.298 109.022 137.578L150.272 111.328C151.337 110.651 152.215 109.716 152.823 108.61C153.431 107.504 153.75 106.262 153.75 105Z" fill="#E2E8F0"/>
</g>
</svg>
