<svg width="32" height="32" viewBox="0 0 32 32" fill="none" xmlns="http://www.w3.org/2000/svg">
<rect width="32" height="32" rx="10" fill="#C6C6C6" fill-opacity="0.5"/>
<path d="M11.5 15C10.5333 15 9.70833 14.6583 9.025 13.975C8.34167 13.2917 8 12.4667 8 11.5C8 10.5333 8.34167 9.70833 9.025 9.025C9.70833 8.34167 10.5333 8 11.5 8C12.4667 8 13.2917 8.34167 13.975 9.025C14.6583 9.70833 15 10.5333 15 11.5C15 12.4667 14.6583 13.2917 13.975 13.975C13.2917 14.6583 12.4667 15 11.5 15ZM11.5 13C11.9167 13 12.2707 12.854 12.562 12.562C12.854 12.2707 13 11.9167 13 11.5C13 11.0833 12.854 10.7293 12.562 10.438C12.2707 10.146 11.9167 10 11.5 10C11.0833 10 10.7293 10.146 10.438 10.438C10.146 10.7293 10 11.0833 10 11.5C10 11.9167 10.146 12.2707 10.438 12.562C10.7293 12.854 11.0833 13 11.5 13ZM20.5 24C19.5333 24 18.7083 23.6583 18.025 22.975C17.3417 22.2917 17 21.4667 17 20.5C17 19.5333 17.3417 18.7083 18.025 18.025C18.7083 17.3417 19.5333 17 20.5 17C21.4667 17 22.2917 17.3417 22.975 18.025C23.6583 18.7083 24 19.5333 24 20.5C24 21.4667 23.6583 22.2917 22.975 22.975C22.2917 23.6583 21.4667 24 20.5 24ZM20.5 22C20.9167 22 21.2707 21.854 21.562 21.562C21.854 21.2707 22 20.9167 22 20.5C22 20.0833 21.854 19.7293 21.562 19.438C21.2707 19.146 20.9167 19 20.5 19C20.0833 19 19.7293 19.146 19.438 19.438C19.146 19.7293 19 20.0833 19 20.5C19 20.9167 19.146 21.2707 19.438 21.562C19.7293 21.854 20.0833 22 20.5 22ZM9.4 24L8 22.6L22.6 8L24 9.4L9.4 24Z" fill="black"/>
</svg>
