<svg width="33" height="32" viewBox="0 0 33 32" fill="none" xmlns="http://www.w3.org/2000/svg">
<rect x="0.5" width="32" height="32" rx="10" fill="#C6C6C6" fill-opacity="0.5"/>
<path d="M16.5 13.75C15.2574 13.75 14.25 14.7574 14.25 16C14.25 17.2426 15.2574 18.25 16.5 18.25C17.7426 18.25 18.75 17.2426 18.75 16C18.75 14.7574 17.7426 13.75 16.5 13.75Z" fill="black"/>
<path fill-rule="evenodd" clip-rule="evenodd" d="M16.5 9.5C13.8822 9.5 11.528 10.5514 9.83162 11.8534C8.98232 12.5052 8.28544 13.2291 7.79649 13.9337C7.31686 14.6248 7 15.3515 7 16C7 16.6485 7.31686 17.3752 7.79649 18.0663C8.28544 18.7709 8.98232 19.4948 9.83162 20.1466C11.528 21.4486 13.8822 22.5 16.5 22.5C19.1178 22.5 21.472 21.4486 23.1684 20.1466C24.0177 19.4948 24.7146 18.7709 25.2035 18.0663C25.6831 17.3752 26 16.6485 26 16C26 15.3515 25.6831 14.6248 25.2035 13.9337C24.7146 13.2291 24.0177 12.5052 23.1684 11.8534C21.472 10.5514 19.1178 9.5 16.5 9.5ZM12.75 16C12.75 13.9289 14.4289 12.25 16.5 12.25C18.5711 12.25 20.25 13.9289 20.25 16C20.25 18.0711 18.5711 19.75 16.5 19.75C14.4289 19.75 12.75 18.0711 12.75 16Z" fill="black"/>
</svg>
