<svg width="32" height="32" viewBox="0 0 32 32" fill="none" xmlns="http://www.w3.org/2000/svg">
<rect width="32" height="32" rx="10" fill="#C6C6C6" fill-opacity="0.5"/>
<path d="M14.5998 14.4004C14.5998 15.2004 14.1998 16.0004 13.6998 16.5004C12.8998 17.3004 12.1998 18.3004 11.7998 19.4004C11.2998 20.6004 11.3998 22.0004 12.1998 23.1004C12.2998 23.2004 12.4998 23.5004 12.4998 23.5004H7.49985C6.99985 23.5004 6.59985 23.4004 6.19985 23.1004C5.19985 22.5004 4.89985 21.3004 5.29985 20.4004C5.79985 18.9004 6.99985 17.8004 8.39985 17.1004C7.49985 16.3004 6.99985 15.0004 7.29985 13.6004C7.59985 12.2004 8.69985 11.0004 10.1998 10.7004C11.8998 10.4004 13.3998 11.2004 14.1998 12.6004C14.3998 13.1004 14.5998 13.7004 14.5998 14.4004Z" fill="black"/>
<path d="M26.8002 20C26.0002 18 24.4002 16.6 22.5002 15.9C23.6002 15.1 24.3002 13.8 24.3002 12.4C24.3002 9.9 22.4002 8 20.0002 8C17.6002 8 15.7002 9.9 15.7002 12.3C15.7002 13.7 16.4002 15 17.5002 15.8C15.5002 16.5 13.9002 18 13.1002 20C12.8002 20.8 12.9002 21.6 13.3002 22.3C13.8002 23 14.6002 23.5 15.5002 23.5H24.4002C25.3002 23.5 26.1002 23.1 26.6002 22.3C27.0002 21.6 27.1002 20.7 26.8002 20Z" fill="black"/>
</svg>
