<svg width="33" height="32" viewBox="0 0 33 32" fill="none" xmlns="http://www.w3.org/2000/svg">
<rect x="0.5" width="32" height="32" rx="10" fill="#C6C6C6" fill-opacity="0.5"/>
<path d="M16.5 26C11 26 6.5 21.5 6.5 16C6.5 10.5 11 6 16.5 6C22 6 26.5 10.5 26.5 16C26.5 21.5 22 26 16.5 26Z" fill="black"/>
<path d="M21.4 16.9996H16.5C15.9 16.9996 15.5 16.5996 15.5 15.9996V11.0996C15.5 10.4996 15.9 10.0996 16.5 10.0996C17.1 10.0996 17.5 10.4996 17.5 11.0996V14.9996H21.4C22 14.9996 22.4 15.3996 22.4 15.9996C22.4 16.5996 22 16.9996 21.4 16.9996Z" fill="white"/>
</svg>
