<svg width="33" height="32" viewBox="0 0 33 32" fill="none" xmlns="http://www.w3.org/2000/svg">
<rect x="0.5" width="32" height="32" rx="10" fill="#C6C6C6" fill-opacity="0.5"/>
<path d="M16.8999 25.2C16.6999 24.9 16.4999 24.7 16.3999 24.4C15.8999 23.5 15.6999 22.5 15.6999 21.5C15.6999 20 16.2999 18.6 17.1999 17.5C17.3999 17.3 17.4999 17.1 17.6999 17C17.6999 16.9 18.1999 16.6 18.4999 16.4C20.2999 15.3 21.3999 13.3 21.1999 11.2C21.0999 10.3 20.7999 9.39997 20.3999 8.79997C19.5999 7.49997 18.2999 6.49997 16.6999 6.19997C13.0999 5.49997 9.89986 8.19997 9.89986 11.7C9.89986 13.6 10.7999 15.2 12.1999 16.2C9.69986 17.1 7.69986 19 6.59986 21.5C6.19986 22.5 6.29986 23.6 6.89986 24.5C7.69986 25.4 8.69986 26 9.89986 26H17.6999C17.3999 25.7 17.0999 25.5 16.8999 25.2Z" fill="black"/>
<path d="M21.8998 16.7998C21.4998 16.7998 21.0998 16.8998 20.6998 16.9998C20.3998 17.0998 19.9998 17.1998 19.6998 17.3998C19.3998 17.4998 19.1998 17.6998 18.8998 17.8998C17.8998 18.6998 17.2998 19.9998 17.2998 21.3998C17.2998 22.4998 17.6998 23.4998 18.2998 24.2998C18.5998 24.5998 18.8998 24.8998 19.1998 25.0998C19.8998 25.5998 20.6998 25.8998 21.4998 25.8998C21.5998 25.8998 21.6998 25.8998 21.7998 25.8998C24.2998 25.8998 26.3998 23.7998 26.3998 21.2998C26.4998 18.8998 24.3998 16.7998 21.8998 16.7998Z" fill="black"/>
<path d="M24.2 20.6004H22.8V19.2004C22.8 18.7004 22.4 18.4004 22 18.4004C21.6 18.4004 21.2 18.8004 21.2 19.2004V20.6004H19.8C19.3 20.6004 19 21.0004 19 21.4004C19 21.9004 19.4 22.2004 19.8 22.2004H21.2V23.6004C21.2 24.1004 21.6 24.4004 22 24.4004C22.4 24.4004 22.8 24.0004 22.8 23.6004V22.2004H24.2C24.7 22.2004 25 21.8004 25 21.4004C25 21.0004 24.6 20.6004 24.2 20.6004Z" fill="white"/>
</svg>
