<svg width="40" height="36" viewBox="0 0 40 36" fill="none" xmlns="http://www.w3.org/2000/svg">
<path d="M0 0H31C35.9706 0 40 4.02944 40 9V27C40 31.9706 35.9706 36 31 36H0V0Z" fill="#D2D2D2"/>
<path d="M13 28C12.45 28 11.979 27.8043 11.587 27.413C11.1957 27.021 11 26.55 11 26V12H13V26H24V28H13ZM17 24C16.45 24 15.9793 23.8043 15.588 23.413C15.196 23.021 15 22.55 15 22V10C15 9.45 15.196 8.979 15.588 8.587C15.9793 8.19567 16.45 8 17 8H26C26.55 8 27.021 8.19567 27.413 8.587C27.8043 8.979 28 9.45 28 10V22C28 22.55 27.8043 23.021 27.413 23.413C27.021 23.8043 26.55 24 26 24H17Z" fill="white"/>
</svg>
