<svg width="24" height="24" viewBox="0 0 24 24" fill="none" xmlns="http://www.w3.org/2000/svg">
<path d="M18.955 2.04505C19.2479 2.33794 19.2479 2.81282 18.955 3.10571L18.4046 3.65616C21.6936 7.48724 21.5235 13.2651 17.8944 16.8943C16.1814 18.6073 13.9897 19.5496 11.7501 19.7213V21.25H13.5001C13.9143 21.25 14.2501 21.5858 14.2501 22C14.2501 22.4142 13.9143 22.75 13.5001 22.75H8.50006C8.08585 22.75 7.75006 22.4142 7.75006 22C7.75006 21.5858 8.08585 21.25 8.50006 21.25H10.2501V19.7213C8.24379 19.5674 6.276 18.7951 4.65622 17.4045L4.10577 17.955C3.81288 18.2478 3.338 18.2478 3.04511 17.955C2.75222 17.6621 2.75222 17.1872 3.04511 16.8943L3.75222 16.1872C4.24765 15.6917 5.01752 15.7171 5.49984 16.1493C7.0618 17.5491 9.02928 18.2493 10.997 18.25L11.0001 18.25L11.0033 18.25C13.1136 18.2491 15.2237 17.4437 16.8337 15.8336C19.9466 12.7207 20.0519 7.73853 17.1494 4.49977C16.7171 4.01746 16.6918 3.24759 17.1872 2.75216L17.8944 2.04505C18.1872 1.75216 18.6621 1.75216 18.955 2.04505Z" fill="#0083FE"/>
<path fill-rule="evenodd" clip-rule="evenodd" d="M4.25006 10C4.25006 6.27208 7.27214 3.25 11.0001 3.25C14.728 3.25 17.7501 6.27208 17.7501 10C17.7501 13.7279 14.728 16.75 11.0001 16.75C7.27214 16.75 4.25006 13.7279 4.25006 10ZM11.0001 4.75C8.10057 4.75 5.75006 7.1005 5.75006 10C5.75006 10.3348 5.78141 10.6623 5.84132 10.9798C6.25264 10.5312 6.84351 10.25 7.50006 10.25C8.7427 10.25 9.75006 11.2574 9.75006 12.5C9.75006 13.4223 9.19507 14.2151 8.40082 14.5624C9.16718 15 10.0544 15.25 11.0001 15.25C13.5434 15.25 15.6644 13.4414 16.147 11.0402C15.4784 12.0694 14.3187 12.75 13.0001 12.75C10.929 12.75 9.25006 11.0711 9.25006 9C9.25006 6.92893 10.929 5.25 13.0001 5.25C13.0865 5.25 13.1723 5.25293 13.2573 5.25869C12.5735 4.93256 11.8081 4.75 11.0001 4.75ZM10.7501 9C10.7501 7.75736 11.7574 6.75 13.0001 6.75C14.2427 6.75 15.2501 7.75736 15.2501 9C15.2501 10.2426 14.2427 11.25 13.0001 11.25C11.7574 11.25 10.7501 10.2426 10.7501 9ZM7.50006 11.75C7.08585 11.75 6.75006 12.0858 6.75006 12.5C6.75006 12.9142 7.08585 13.25 7.50006 13.25C7.91427 13.25 8.25006 12.9142 8.25006 12.5C8.25006 12.0858 7.91427 11.75 7.50006 11.75Z" fill="#0083FE"/>
</svg>
