<svg width="243" height="211" viewBox="0 0 243 211" fill="none" xmlns="http://www.w3.org/2000/svg">
<path fill-rule="evenodd" clip-rule="evenodd" d="M84.5217 112.883C87.8662 115.264 90.4801 118.403 91.8576 121.937C92.3929 123.212 92.7935 124.54 92.9708 125.892C93.1629 127.085 93.1203 128.29 93.0398 129.488L92.6917 131.266C92.5686 131.856 92.3272 132.423 92.1466 132.998C91.2337 135.259 89.7527 137.318 87.8876 139.046C86.2375 140.585 84.2639 141.861 82.1508 142.84C79.4417 144.088 76.4042 144.948 73.3158 144.946C72.3553 144.964 72.4883 144.74 73.255 144.445C74.0267 144.168 75.3895 143.731 76.992 143.346C82.6877 142.011 87.789 138.619 90.2338 133.898C90.9842 132.494 91.3372 130.938 91.5457 129.372C91.6081 127.793 91.5588 126.189 91.127 124.644C90.3258 121.223 88.2915 118.03 85.4789 115.498C83.7401 113.948 81.7058 112.636 79.4433 111.704C77.698 111.09 75.8804 110.536 73.984 110.419C73.5112 110.387 73.0399 110.318 72.5671 110.315L71.1485 110.368C70.2077 110.377 69.2472 110.52 68.3113 110.658C65.3887 111.103 62.6484 111.978 60.1511 113.263C59.5994 113.541 59.0756 113.841 58.5322 114.147C57.5273 114.715 56.8788 115.113 56.378 115.342C55.8641 115.553 55.5374 115.644 55.2287 115.666C55.0875 115.676 54.9184 115.708 54.8215 115.696C54.5161 115.684 55.1072 114.934 56.5324 113.959C58.6504 112.531 61.0919 111.243 63.8076 110.419C65.1588 110.001 66.5594 109.69 67.9731 109.46C68.6807 109.343 69.3916 109.255 70.1026 109.172L72.3241 109.065C76.7572 109.027 81.1098 110.522 84.543 112.853L84.5217 112.883Z" fill="#231F20"/>
<path fill-rule="evenodd" clip-rule="evenodd" d="M183.529 147.099C181.613 147.063 179.723 146.874 177.855 146.589C176.921 146.445 175.993 146.272 175.07 146.069C174.609 145.965 174.149 145.854 173.688 145.725L173.149 145.56C173.102 145.542 173.049 145.524 173.006 145.492C172.983 145.451 172.993 145.54 172.987 145.56L172.985 145.573C172.949 145.567 173.021 146.441 173.062 146.963C173.157 147.557 173.215 148.151 173.338 148.746C174.138 153.018 175.331 157.279 176.275 161.572C176.678 163.482 177.113 165.398 177.444 167.306C177.92 169.748 178.219 172.237 178.147 174.72C178.145 175.493 178.073 175.389 177.911 174.744C177.809 174.315 177.7 173.855 177.597 173.414C177.502 172.861 177.214 172.229 177.147 171.527C176.4 166.557 175.187 161.652 174.087 156.656C173.44 153.666 172.525 150.593 172.138 147.45C172.079 147.076 172.062 146.694 172.046 146.31L172.02 145.732L172.079 144.842C172.225 144.821 172.499 144.705 172.537 144.757C172.581 144.78 172.655 144.798 172.74 144.817C172.783 144.818 172.822 144.855 172.868 144.825L173.008 144.709C173.079 144.57 173.256 144.73 173.382 144.749C173.545 144.81 173.583 144.813 173.679 144.844C174.013 144.94 174.348 145.029 174.691 145.108C175.376 145.27 176.07 145.408 176.77 145.529C178.17 145.772 179.587 145.949 181.007 146.06C183.401 146.235 185.826 146.261 188.149 145.77C191.707 145.132 195.182 143.91 197.97 141.955C199.057 141.199 199.968 140.296 200.784 139.351C201.533 138.364 202.232 137.348 202.695 136.232C202.946 135.759 203.068 135.255 203.265 134.76C203.857 132.884 203.974 132.269 204.401 131.891C204.493 131.804 204.591 131.685 204.675 131.638C204.933 131.467 205.081 132.317 204.779 133.805C204.302 135.995 203.312 138.227 201.662 140.136C200.009 142.03 197.823 143.634 195.343 144.69C193.517 145.5 191.578 146.094 189.606 146.506C187.66 146.931 185.552 147.183 183.534 147.123L183.529 147.099Z" fill="#231F20"/>
<path fill-rule="evenodd" clip-rule="evenodd" d="M89.8479 185.253C73.1449 188.706 44.2328 186.71 40.1691 183.707C35.5324 180.279 53.4931 177.35 53.4931 177.35C53.4931 177.35 55.7129 184.569 65.4149 184.909C75.1168 185.25 89.8479 185.253 89.8479 185.253Z" fill="#231F20"/>
<path fill-rule="evenodd" clip-rule="evenodd" d="M165.201 184.346C154.501 186.424 124.548 189.194 118.187 184.265C114.195 181.173 136.622 178.611 136.622 178.611C136.622 178.611 132.384 181.823 133.138 182.556C133.89 183.288 165.201 184.346 165.201 184.346Z" fill="#231F20"/>
<path fill-rule="evenodd" clip-rule="evenodd" d="M111.15 49.9911C104.162 50.9077 97.9906 55.8658 96.9742 62.0857C96.5063 64.3381 96.7148 66.6643 97.2287 68.9466C97.6129 70.6078 98.204 72.2548 98.9806 73.8492C99.3812 74.6436 99.8131 75.4251 100.265 76.2053L100.623 76.7808C100.793 77.0494 101.051 77.4331 101.276 77.7486C101.792 78.4037 102.264 79.0502 102.829 79.6954L103.586 80.9616L103.657 81.8199L103.691 82.1467C103.762 82.2405 103.588 82.438 103.468 82.4949C103.217 82.6569 102.946 82.7947 102.583 82.9127C102.199 83.0136 101.801 83.1315 101.268 83.1756C100.759 83.2338 100.127 83.2068 99.5175 83.1869C98.314 83.1272 96.9496 83.0462 95.8939 82.9425C92.8498 82.6412 89.8189 82.3982 86.783 82.1993C82.2038 81.8938 77.5933 81.7332 73.0568 81.746C70.1441 81.7602 67.2297 81.8568 64.3547 82.0814C62.9181 82.1879 61.4831 82.2817 60.0793 82.4778C59.3798 82.5759 58.6853 82.6924 58.0138 82.8459C57.3439 82.9965 56.6247 83.0576 56.0106 83.3262C55.2603 83.6559 54.9943 83.8847 54.9254 83.8094C54.8761 83.7511 55.037 83.3717 55.61 82.8473C56.1814 82.3599 57.0746 81.5215 58.3881 81.0312C59.6737 80.4827 61.2466 80.0123 62.969 79.7224C69.1031 78.9223 75.1715 78.8953 81.2235 78.9678C84.2496 79.019 87.2706 79.1298 90.2852 79.2833C91.7908 79.37 93.298 79.4325 94.8036 79.4936L95.93 79.5448L96.2124 79.559C96.2748 79.5618 96.2616 79.5732 96.2896 79.5789C96.3273 79.5775 96.3667 79.5902 96.4078 79.5973L96.9808 79.7096C97.2451 79.7409 97.6359 79.8418 97.8789 79.7679L97.4372 79.1952C97.3683 79.0531 97.2419 78.8982 97.1401 78.7419C97.1401 78.7419 96.8938 78.3752 96.7247 78.1322L96.2107 77.3208C95.5277 76.2366 94.958 75.094 94.426 73.9359C93.3916 71.6096 92.679 69.1313 92.5017 66.6004C92.4229 64.7004 92.4656 62.7664 92.991 60.8977C93.1601 59.9484 93.5936 59.056 93.8908 58.138C94.3029 57.2342 94.7544 56.3432 95.3258 55.5148C97.5456 52.1625 100.994 49.5222 104.977 47.9348C107.428 46.9117 110.134 46.4655 112.702 46.231C115.313 45.9994 117.969 46.0477 120.57 46.4427C124.514 47.0211 128.321 48.4962 131.421 50.7386C134.488 53.0066 136.813 56.0533 137.9 59.3971C139.721 64.5896 138.964 70.1317 136.749 75.013C136.286 76.1058 135.739 77.1332 135.142 78.1834C133.871 80.0436 132.81 81.1335 131.955 81.8156C131.106 82.4991 130.377 82.7279 129.687 82.8317C129.379 82.8828 129.047 82.9965 128.838 83.0022C128.173 83.0505 128.692 81.2543 130.114 78.6268C131.117 76.6487 132.152 74.7132 132.928 72.7024C133.684 70.6888 134.184 68.6254 134.352 66.572C134.82 62.4793 133.643 58.3469 130.732 55.2163C128.597 52.8801 125.5 51.1862 122.048 50.3677C118.605 49.5065 114.833 49.4838 111.178 50.0778L111.15 49.9911Z" fill="#231F20"/>
<path fill-rule="evenodd" clip-rule="evenodd" d="M178.135 85.3983C178.202 85.1141 178.197 85.1795 178.22 85.1042C178.236 85.0601 178.246 85.053 178.261 85.0232C178.296 84.9706 178.318 84.9052 178.243 84.8853C178.182 84.8498 178.161 84.8242 178.039 84.7716L176.714 84.3553C174.938 83.8025 173.055 83.3961 171.158 83.0365C169.759 82.8049 168.347 82.66 166.932 82.488C161.95 81.8187 156.851 81.5288 151.763 81.607C149.505 81.6411 147.242 81.8443 145.026 82.0901C142.172 82.4241 139.402 83.0564 136.519 83.2625C135.615 83.3151 135.564 82.8177 136.142 82.0944C136.432 81.7306 136.879 81.3043 137.46 80.8794C138.045 80.4644 138.793 80.1902 139.634 80.0083C145.612 78.7592 151.756 78.4508 157.857 78.8998C161.502 79.1613 165.303 79.2111 169.02 79.6942C171.06 79.9742 173.094 80.3038 175.11 80.7614C176.117 81.003 177.125 81.2247 178.118 81.5444L178.864 81.7661L179.236 81.877L179.731 82.0588C180.409 82.3217 181.074 82.6514 181.655 82.9868C181.739 83.3307 181.967 83.5964 181.998 83.9673C182.074 84.3226 181.931 84.7603 181.857 85.1454L181.404 86.9274L180.593 90.0736C179.803 93.2454 179.029 96.4371 178.558 99.6216C178.192 102.097 178.115 104.547 178.113 106.978C178.131 107.51 178.149 108.034 178.167 108.57C178.204 110.548 178.087 111.152 177.289 111.657C177.108 111.77 176.934 111.918 176.749 111.995C176.145 112.263 175.462 111.453 175.196 109.892C174.463 105.275 175.02 100.477 175.816 95.7734C176.414 92.2791 177.261 88.7961 178.044 85.3884L178.135 85.3983Z" fill="#231F20"/>
<path fill-rule="evenodd" clip-rule="evenodd" d="M65.13 110.345C68.7602 109.559 72.9142 109.409 76.7447 110.358C80.5818 111.301 83.9756 113.309 86.514 115.853C88.3562 117.719 89.8651 119.839 90.7566 122.161C91.5644 124.203 91.8567 126.369 91.8222 128.5C91.7795 130.649 91.1573 132.729 90.315 134.737C88.3972 138.679 84.8672 141.872 80.682 143.825C76.9631 145.562 72.7418 146.475 68.5615 146.41C63.2106 146.421 57.7119 144.653 53.9864 141.354C52.7895 140.358 53.4364 140.098 54.9272 140.328C55.6891 140.417 56.5839 140.723 57.6905 140.954C58.8202 141.155 59.9301 141.601 61.1796 141.983C65.4945 143.603 70.3742 143.726 74.8533 142.643C77.0731 142.027 79.1895 141.148 81.0842 139.967C82.9182 138.725 84.5207 137.25 85.7883 135.547C88.6796 131.398 88.5483 125.634 85.8654 121.227C84.4107 118.782 82.2188 116.662 79.5179 115.214C76.794 113.802 73.5857 113.132 70.3643 113.275C66.3269 113.403 62.2714 114.534 58.5969 116.232C57.9023 116.554 57.216 116.895 56.5379 117.248L55.2129 117.982L53.7336 118.866L52.691 119.337C52.338 119.501 52.1442 119.46 51.8635 119.534C51.3413 119.534 51.0359 119.059 50.8028 118.493C50.5532 117.921 50.4613 117.119 50.3661 116.366L50.1608 114.296C49.9802 112.151 49.8472 110.017 49.7274 107.889C49.4926 103.49 49.179 99.1741 49.3037 94.7702C49.3333 93.7997 49.3497 92.8461 49.4499 91.8613C49.6436 90.0381 49.9227 88.8189 50.3365 87.9989C50.8077 87.1932 51.2839 86.7726 51.8339 86.5168C52.0835 86.3988 52.361 86.2411 52.5695 86.2084C52.9307 86.1601 53.0489 86.4997 53.1129 87.1392C53.1671 87.7843 53.2673 88.762 53.1162 89.9998C52.8273 93.7087 52.9438 97.6436 53.09 101.614C53.2591 105.589 53.507 109.642 53.9027 113.657L53.993 114.54L53.9864 114.547C53.9815 114.554 53.9782 114.581 53.993 114.56C53.9963 114.584 54.0045 114.571 54.0127 114.57C54.0472 114.551 53.9634 114.604 54.0964 114.529L54.4659 114.324L55.2162 113.922C56.2293 113.399 57.2587 112.892 58.3342 112.441C60.4686 111.522 62.7426 110.78 65.0955 110.261L65.13 110.345Z" fill="#231F20"/>
<path fill-rule="evenodd" clip-rule="evenodd" d="M100.196 181.489L100.179 181.452L100.146 181.374C100.146 181.374 100.122 181.321 100.141 181.358L99.9116 180.922C99.5865 180.335 99.3139 179.724 99.0348 179.119C98.5078 177.894 98.0382 176.645 97.7147 175.353C97.0202 172.785 96.8314 170.078 97.2205 167.406C98.0448 162.028 101.558 157.119 106.622 154.041C108.487 152.909 110.677 151.992 112.856 151.506C115.038 150.98 117.299 150.715 119.557 150.743C123.529 150.818 127.531 151.706 130.935 153.571C134.373 155.364 137.064 158.252 138.489 161.446C139.883 164.635 140.414 168.017 140.123 171.354C139.98 173.021 139.66 174.686 139.03 176.285C138.714 177.081 138.383 177.879 137.921 178.63C137.692 179.005 137.501 179.396 137.219 179.748L136.823 180.288C136.71 180.436 136.516 180.719 136.475 180.743L136.115 181.125C136.032 181.254 135.867 181.357 135.748 181.476C135.652 181.57 135.35 181.752 135.647 181.79C135.997 181.881 136.365 181.921 136.733 181.965L138.476 182.141L140.752 182.326C143.791 182.548 146.838 182.69 149.866 182.779C154.005 182.906 158.154 182.889 162.29 182.809C166.411 182.71 170.59 182.621 174.544 181.843C175.762 181.583 176.266 181.431 176.301 181.561C176.325 181.674 175.836 182.063 174.818 182.496C172.795 183.383 168.746 184.391 163.913 184.781C158.466 185.221 153.027 185.179 147.589 185.084C144.868 185.02 142.148 184.914 139.414 184.735L137.357 184.58L135.797 184.433C135.142 184.367 134.487 184.281 133.871 184.175C132.57 183.96 131.986 183.461 131.722 182.92C131.598 182.724 131.699 182.604 131.717 182.437L131.815 181.972L131.917 181.507C131.938 181.429 131.945 181.355 131.976 181.274L132.349 180.93L133.784 179.417C134.091 179.109 134.066 179.075 134.183 178.924L134.447 178.546C134.83 178.058 135.078 177.49 135.388 176.959C135.908 175.84 136.317 174.668 136.583 173.453C137.109 171.027 137.156 168.461 136.657 165.984C136.248 163.963 135.49 161.939 134.253 160.228C132.997 158.515 131.239 157.072 129.187 156.016C125.072 153.871 119.874 153.345 115.153 154.222C109.902 155.015 105.519 158.195 102.992 162.263C101.75 164.297 101.025 166.544 100.829 168.853C100.667 171.162 100.985 173.524 101.76 175.795C102.049 176.708 102.429 177.607 102.847 178.489C103.043 178.937 103.289 179.366 103.517 179.802C103.826 180.403 104.338 181.141 104.737 181.799C105.015 182.185 105.011 182.428 105.067 182.7L105.226 183.508L105.246 183.609L105.251 183.635L105.253 183.64C105.479 183.736 104.946 183.515 105 183.539L104.998 183.544L104.995 183.559C104.99 183.579 104.977 183.589 104.969 183.605L104.845 183.748L104.588 184.03C104.381 184.21 104.046 184.34 103.639 184.429C102.836 184.615 101.91 184.709 101.025 184.817L99.0266 185.027C96.6294 185.26 94.2388 185.455 91.845 185.624C86.4678 186.001 81.0676 186.245 75.6526 186.276C72.9468 186.286 70.236 186.248 67.5187 186.08C66.1592 185.998 64.7981 185.879 63.4304 185.697C62.0561 185.486 60.7098 185.307 59.2764 184.762C56.986 183.926 55.4853 182.231 54.4016 180.589C53.3164 178.91 52.6448 177.133 52.0981 175.36C51.0358 171.8 50.5777 168.201 50.3626 164.6C50.269 163.012 50.2427 161.459 50.2887 159.862C50.5054 153.942 51.2837 152.087 52.3296 150.929C52.5759 150.666 52.8353 150.315 53.0569 150.186C53.4313 149.976 53.6103 150.439 53.7531 151.496C53.8877 152.555 54.0207 154.21 53.9977 156.315C53.983 159.44 54.2095 162.6 54.4476 165.748C54.7185 168.891 55.1783 172.05 56.0829 175.009C56.9515 177.909 58.5606 180.801 60.6999 181.648C61.1285 181.854 62.0233 182.059 62.8278 182.202C63.6619 182.353 64.5485 182.465 65.4483 182.555C67.2544 182.735 69.1245 182.825 71.0061 182.873C76.6066 183.002 82.3204 182.802 88.0161 182.479C90.8648 182.313 93.7167 182.108 96.5523 181.857L99.9461 181.53C99.9986 181.524 100.153 181.541 100.072 181.465L100.196 181.489Z" fill="#231F20"/>
<path fill-rule="evenodd" clip-rule="evenodd" d="M203.549 136.017C202.877 137.464 202.017 138.853 200.91 140.122C199.807 141.413 198.462 142.5 197.016 143.422C194.093 145.292 190.535 146.317 187.05 146.561C184.505 146.789 181.956 146.729 179.499 146.352C178.413 146.186 177.346 145.974 176.294 145.727L175.509 145.535L175.12 145.434L174.937 145.386L174.883 145.369L174.438 145.217C174.289 145.176 174.11 145.075 173.96 145.086C173.946 145.215 173.918 145.352 173.911 145.494L173.918 145.943L174.087 147.07C174.698 150.537 175.752 154.077 176.54 157.644C177.252 160.816 177.972 164.019 178.446 167.226C178.747 169.287 178.994 171.373 178.906 173.472L178.855 175.043L178.535 176.605C178.344 177.641 178.078 178.664 177.773 179.673C177.394 180.931 177.215 180.708 177.008 179.591C176.886 179.031 176.809 178.258 176.609 177.334C176.486 176.854 176.359 176.361 176.228 175.849C176.156 175.588 176.121 175.32 176.028 175.048C175.998 174.773 175.97 174.496 175.939 174.211C175.568 170.192 175.021 166.169 174.079 162.133C173.146 158.102 172.084 154.039 171.296 149.805C171.182 149.165 171.066 148.522 170.951 147.878L170.806 146.885L170.726 146.359C170.677 146.125 170.677 145.834 170.672 145.585C170.677 144.57 170.47 143.388 170.953 142.784L171.196 142.233C171.425 142.191 171.519 142.025 171.673 141.967C172.026 141.877 172.486 141.842 173.051 141.931C173.619 142.029 174.243 142.234 174.841 142.403L176.31 142.801C177.003 142.974 177.697 143.135 178.395 143.273C179.791 143.553 181.196 143.76 182.598 143.877C185.675 144.157 188.805 143.892 191.588 142.882C194.354 141.899 196.84 140.171 198.492 138.019C200.544 135.329 201.625 131.985 201.515 128.73C201.419 126.257 200.709 123.772 199.3 121.632C197.922 119.47 195.799 117.761 193.276 116.684C189.317 115.004 184.72 115.056 180.484 115.885C179.54 116.057 178.643 116.328 177.714 116.57C175.991 117.029 174.886 117.401 174.034 117.525C173.171 117.63 172.596 117.573 171.989 117.306C171.713 117.188 171.381 117.098 171.169 116.955C170.813 116.713 170.903 116.314 171.411 115.788C171.915 115.26 172.851 114.622 174.208 114.079C178.213 112.449 182.86 111.5 187.729 111.86C192.552 112.19 197.696 114.101 200.955 117.71C205.733 123.003 206.302 130.202 203.634 136.035L203.549 136.017Z" fill="#231F20"/>
<path fill-rule="evenodd" clip-rule="evenodd" d="M172.09 58.786C172.026 59.0688 171.603 58.9508 170.962 58.6069C170.757 58.4961 170.286 58.0442 170.276 57.9348C170.253 57.7216 170.237 57.5099 170.258 57.3322C170.273 57.2228 171.125 56.0988 171.384 55.6994C171.64 55.3101 171.967 54.9974 172.312 54.7019C173.006 54.1008 173.665 53.4783 174.307 52.8701C174.45 52.7351 174.624 52.6271 174.816 52.539C175.482 52.2378 175.978 51.7802 176.374 51.2686C176.44 51.1848 176.537 51.118 176.509 50.9688C176.497 50.7286 177.597 49.4525 177.806 49.3346C178.341 49.0418 178.801 48.6922 179.338 48.3668C179.415 48.3199 179.416 48.2304 179.595 48.2403C180.011 48.2617 180.047 48.0911 180.19 47.9703C180.387 47.8027 180.566 47.625 180.805 47.4673C180.924 47.3891 181.155 47.3564 181.351 47.3024C181.528 47.2541 181.917 47.4602 181.947 47.5142C182.029 47.6648 182.275 47.6605 182.456 47.716C182.518 47.7359 182.598 47.76 182.644 47.7828C182.72 47.797 182.989 49.6074 182.851 49.7651C182.846 49.7737 182.787 49.9172 182.697 50.1318C182.602 50.3435 182.475 50.6234 182.344 50.9133C182.022 51.4406 181.684 51.9905 181.597 52.1312C181.533 52.2562 181.365 52.3188 181.227 52.3955C181.186 52.4509 180.072 53.9729 179.996 54.0127C179.681 54.2628 179.472 54.5939 178.945 54.6592C178.842 54.6706 178.794 54.7331 178.74 54.7886C178.262 55.249 177.656 55.5914 177.083 55.9467C176.789 56.13 176.551 56.3574 176.284 56.5592C176.234 56.5947 176.156 56.6032 176.093 56.626C176.016 56.6544 175.926 56.6743 175.868 56.7212C175.262 57.2157 174.52 57.5738 173.987 58.1181C173.86 58.2431 172.949 58.5245 172.818 58.678C172.741 58.7604 172.115 58.6709 172.09 58.786Z" fill="#231F20"/>
<path fill-rule="evenodd" clip-rule="evenodd" d="M116.857 23.2062C116.693 22.9362 117.128 22.7912 117.918 22.7358C118.169 22.7188 118.9 22.8452 118.99 22.9248C119.169 23.084 119.34 23.2389 119.455 23.3867C119.514 23.4762 119.668 24.7594 119.776 25.1985C119.867 25.622 119.857 26.0398 119.812 26.4519C119.74 27.2946 119.716 28.1443 119.678 28.997C119.67 29.186 119.622 29.3736 119.54 29.5597C119.261 30.1963 119.215 30.85 119.256 31.5066C119.262 31.616 119.236 31.7282 119.356 31.8377C119.551 32.0181 119.504 33.7973 119.4 34.0261C119.149 34.5931 118.975 35.1643 118.709 35.7342C118.673 35.8166 118.712 35.9047 118.56 35.9758C118.207 36.142 118.249 36.3211 118.208 36.4987C118.177 36.746 118.026 36.9904 117.862 37.2334C117.785 37.3542 117.573 37.4707 117.428 37.5872C117.292 37.6924 116.946 37.6242 116.898 37.5844C116.778 37.4693 116.593 37.5546 116.44 37.5602C116.387 37.5631 116.319 37.5645 116.274 37.5588C116.22 37.5517 115.931 37.1837 115.616 36.7986C115.335 36.4149 115.14 36.0141 115.128 35.936C115.125 35.9175 115.036 35.3875 114.943 34.8233C114.89 34.2648 114.834 33.6793 114.806 33.56C114.777 33.4335 114.865 33.3113 114.921 33.1877C114.944 33.1308 114.752 31.4412 114.769 31.373C114.828 31.0262 114.723 30.6696 115.048 30.337C115.113 30.2717 115.1 30.1992 115.1 30.131C115.094 29.527 115.256 28.933 115.386 28.3362C115.45 28.0321 115.44 27.7209 115.473 27.4139C115.478 27.3585 115.529 27.3059 115.555 27.2519C115.586 27.1837 115.634 27.1169 115.639 27.0473C115.683 26.314 115.933 25.6007 115.903 24.8532C115.895 24.6812 116.371 23.9153 116.361 23.7149C116.353 23.6012 116.919 23.3142 116.857 23.2062Z" fill="#231F20"/>
<path fill-rule="evenodd" clip-rule="evenodd" d="M164.095 82.7427C162.106 82.5849 160.107 82.4243 158.097 82.386C157.361 82.3874 156.636 82.3874 155.898 82.3874C153.314 82.3618 150.722 82.4286 148.134 82.5892C146.99 82.6887 145.837 82.7967 144.711 82.9516C143.256 83.1235 141.831 83.4518 140.345 83.4788C139.88 83.4873 139.888 83.2585 140.215 82.9388C140.539 82.619 141.177 82.1657 142.023 82.0264C145.005 81.485 148.04 81.1937 151.111 81.1738C152.945 81.1639 154.843 81.0218 156.718 81.0189C158.778 81.026 160.841 81.0814 162.895 81.2363C164.16 81.3117 165.418 81.4737 166.677 81.6016C168.579 81.8488 170.478 82.1501 172.337 82.5394C173.784 82.8308 175.217 83.105 176.619 83.547L177.545 83.8312C178.667 84.2802 178.967 84.5318 179.011 84.9169C179.021 85.005 179.047 85.1016 179.034 85.1783C178.987 85.4427 178.437 85.4384 177.647 85.1798C175.279 84.4465 172.703 83.8866 170.06 83.4717C168.103 83.1462 166.098 82.9444 164.095 82.7782V82.7427Z" fill="#231F20"/>
<path fill-rule="evenodd" clip-rule="evenodd" d="M48.7862 46.5186C48.4512 46.4774 48.5579 46.1079 48.9192 45.5494C49.0341 45.3718 49.5332 44.9526 49.6597 44.937C49.9059 44.9071 50.1489 44.8815 50.3575 44.8886C50.4822 44.8958 51.8384 45.5366 52.3277 45.7271C52.799 45.9161 53.1881 46.1747 53.5624 46.449L55.8726 48.0889C56.0417 48.2111 56.1845 48.3574 56.2995 48.5294C56.7001 49.1078 57.2288 49.5767 57.8363 49.9746C57.9364 50.0414 58.0152 50.1309 58.1959 50.121C58.4947 50.1039 60.0019 51.3061 60.1234 51.5278C60.4288 52.0763 60.8015 52.5652 61.1447 53.0824C61.194 53.1549 61.3023 53.1819 61.2563 53.3325C61.148 53.6807 61.3335 53.7674 61.4583 53.9095C61.6323 54.107 61.7932 54.3173 61.9115 54.5646C61.9689 54.6868 61.9262 54.8985 61.9131 55.0847C61.9016 55.2524 61.4829 55.548 61.4107 55.5579C61.2022 55.5878 61.102 55.808 60.9575 55.9544C60.9083 56.0041 60.8442 56.0695 60.7983 56.1036C60.7047 56.1718 58.8198 55.8322 58.6934 55.7213C58.6769 55.7114 58.1893 55.3973 57.6688 55.0634C57.1516 54.7337 56.6065 54.3941 56.4834 54.3344C56.3553 54.2733 56.311 54.134 56.2453 54.0161C56.2125 53.9621 54.6149 53.0128 54.5656 52.9617C54.3079 52.7002 53.9237 52.5481 53.8613 52.1147C53.8498 52.028 53.7792 51.9925 53.7168 51.9484C53.1897 51.5719 52.8088 51.0674 52.3836 50.6027C52.1668 50.364 51.8926 50.1764 51.6496 49.9604C51.6069 49.922 51.5954 49.8538 51.5643 49.8041C51.5281 49.7387 51.5019 49.6648 51.4444 49.6179C50.8402 49.1333 50.3755 48.528 49.704 48.1045C49.5497 48.0036 49.154 47.2405 48.9651 47.1368C48.8617 47.0757 48.9208 46.5342 48.7862 46.5186Z" fill="#231F20"/>
</svg>
