<svg width="53" height="39" viewBox="0 0 53 39" fill="none" xmlns="http://www.w3.org/2000/svg">
<path fill-rule="evenodd" clip-rule="evenodd" d="M29.6232 12.2159L27.5439 12.5676L26.7889 12.7154C25.8979 12.8741 25.0057 13.0331 24.1156 13.1914C23.7209 13.2705 23.3257 13.3496 22.9343 13.4283C22.4294 13.531 21.9386 13.6611 21.398 13.6764C21.2257 13.678 21.2585 13.579 21.3835 13.4709C21.5032 13.3695 21.7257 13.2319 22.0111 13.1781C23.0271 12.9681 24.0514 12.7569 25.0952 12.6024C25.7194 12.5079 26.3577 12.3551 26.9914 12.2341L29.0868 11.8527L30.3791 11.6315C31.0332 11.5275 31.6901 11.4231 32.3395 11.32C32.8453 11.243 33.3361 11.1353 33.8431 11.0702L34.1757 11.0218C34.5982 10.9895 34.7365 11.0205 34.8268 11.1456C34.8475 11.1742 34.8745 11.2028 34.8861 11.2322C34.925 11.3312 34.7581 11.4211 34.4644 11.4612C33.554 11.6017 32.6461 11.7412 31.7211 11.8841C31.0245 11.998 30.3245 12.1124 29.6261 12.2267L29.6232 12.2159Z" fill="#231F20"/>
<path fill-rule="evenodd" clip-rule="evenodd" d="M11.5687 19.8674C12.3715 20.2778 13.18 20.6796 13.9935 21.0714L14.891 21.4848C15.939 21.9885 16.9877 22.4926 18.0348 22.9958C18.5004 23.2195 18.9734 23.4332 19.4398 23.6461C20.0387 23.9224 20.6521 24.1742 21.2005 24.576C21.3724 24.6986 21.2995 24.75 21.1032 24.7413C21.0042 24.7375 20.8775 24.7181 20.7313 24.6858C20.5813 24.6539 20.4078 24.6166 20.2408 24.5337C19.0326 23.9816 17.785 23.4796 16.5789 22.8629C15.8545 22.5 15.0716 22.1852 14.3174 21.8419C13.4881 21.4629 12.6635 21.0735 11.8409 20.6788L10.327 19.939C9.56359 19.5638 8.80767 19.1641 8.05424 18.7809C7.47105 18.4773 6.88123 18.211 6.30425 17.902C6.17667 17.8341 6.04579 17.7802 5.92525 17.697C5.46922 17.4049 5.35656 17.2629 5.34993 17.067C5.34827 17.0226 5.33957 16.9746 5.34662 16.9369C5.36857 16.8151 5.61626 16.835 5.9675 16.9982C7.00756 17.4832 8.05756 18.0714 9.14732 18.6173C9.95045 19.0315 10.7581 19.4519 11.5745 19.8529L11.5687 19.8674Z" fill="#231F20"/>
<path fill-rule="evenodd" clip-rule="evenodd" d="M21.0986 17.2686C21.0593 17.6898 21.0199 18.1119 20.9806 18.5323C20.9677 18.686 20.9706 18.8401 20.9561 18.9937C20.9069 19.5351 20.8572 20.0789 20.8074 20.6191C20.7896 20.8593 20.7797 21.1016 20.7768 21.3406C20.7731 21.6471 20.7859 21.9565 20.7329 22.2593C20.7022 22.4506 20.3129 22.2063 20.2963 21.8467C20.2777 21.2151 20.2934 20.5876 20.3846 19.9567C20.4363 19.5798 20.4247 19.1847 20.4467 18.7978L20.5295 17.5221L20.5854 16.7372C20.6124 16.3412 20.6472 15.9436 20.6583 15.5492C20.6658 15.2427 20.6459 14.9412 20.6434 14.6372C20.643 14.5701 20.638 14.5042 20.6405 14.4367C20.6443 14.312 20.6588 14.2271 20.6877 14.1708C20.7022 14.1426 20.7205 14.1207 20.7441 14.1033C20.7693 14.0614 20.8108 14.0266 20.8472 14.0258C20.8812 14.0221 20.9044 14.0316 20.916 14.0527C20.9338 14.09 20.8948 14.0026 20.9122 14.0424C20.9429 14.1111 20.9421 14.1066 20.952 14.1211C20.969 14.1455 21.0075 14.1666 21.0444 14.1509C21.0812 14.1128 21.0866 14.1513 21.1011 14.1882C21.1135 14.2234 21.1227 14.2636 21.1285 14.3087C21.2001 14.8484 21.2063 15.4213 21.1806 15.992C21.1645 16.4166 21.1401 16.8432 21.1127 17.2686H21.0986Z" fill="#231F20"/>
<path fill-rule="evenodd" clip-rule="evenodd" d="M12.991 14.6353C12.9761 15.0235 12.9674 15.4136 12.9645 15.8038C12.9678 15.9467 12.9716 16.0867 12.9749 16.2304C12.9674 16.7329 12.9596 17.239 12.9521 17.7406C12.95 17.9643 12.9579 18.1896 12.9674 18.412C12.9753 18.6991 13.0084 18.9874 12.9314 19.2839C12.9086 19.3755 12.8092 19.346 12.7144 19.2616C12.6216 19.1766 12.53 19.0462 12.5255 18.8871C12.5164 18.325 12.4899 17.7435 12.523 17.1578C12.5449 16.807 12.5081 16.4433 12.5023 16.0846C12.4969 15.6895 12.4986 15.2943 12.5015 14.8988C12.5056 14.6552 12.5097 14.4113 12.5139 14.1685C12.5259 13.7991 12.5379 13.4292 12.5503 13.063C12.5557 12.7781 12.5354 12.496 12.5495 12.2123C12.5507 12.1501 12.5512 12.0884 12.5582 12.0255C12.5843 11.7927 12.6245 11.7219 12.7413 11.6867C12.7678 11.6788 12.7947 11.6672 12.8204 11.6643C12.9074 11.6535 12.9695 11.7554 12.9844 11.924C13.0362 12.4227 13.0325 12.9392 13.0238 13.4627C13.0167 13.8521 13.0101 14.2439 13.0035 14.6349L12.991 14.6353Z" fill="#231F20"/>
<path fill-rule="evenodd" clip-rule="evenodd" d="M23.7999 1.03753C24.089 0.944747 24.3793 0.879303 24.6705 0.81883C24.7765 0.796463 24.8772 0.755457 24.9845 0.739303C25.3622 0.677173 25.747 0.647351 26.1256 0.598889C26.2946 0.580665 26.4603 0.5467 26.6259 0.522677C26.8393 0.494097 27.0546 0.46676 27.2762 0.475458C27.345 0.477943 27.333 0.465517 27.2808 0.489541C27.2274 0.509836 27.1429 0.598889 27.0335 0.665576C26.6504 0.918652 26.2532 1.1038 25.8228 1.1883C25.5639 1.23262 25.3142 1.34901 25.0565 1.41818C24.7741 1.49522 24.4858 1.55735 24.2016 1.62486C24.0264 1.66587 23.8516 1.70646 23.6843 1.75492C23.5551 1.79676 23.4486 1.82202 23.3898 1.87794C23.321 1.93717 23.2784 2.04735 23.256 2.16788C23.2245 2.358 23.2461 2.56303 23.2291 2.7751C23.2258 2.8219 23.2225 2.87078 23.2196 2.91593C23.2005 3.09403 23.1574 3.14953 23.152 3.18557C23.1496 3.19385 23.1479 3.20462 23.1475 3.20959C23.1479 3.22699 23.1508 3.15326 23.1015 3.03107C23.0009 2.66244 22.6886 2.32859 22.865 1.71516C22.9073 1.60457 22.9756 1.48238 23.08 1.39125C23.1752 1.29806 23.2867 1.24753 23.3538 1.21108C23.5091 1.12948 23.6491 1.07729 23.7941 1.02179L23.7999 1.03753Z" fill="#231F20"/>
<path fill-rule="evenodd" clip-rule="evenodd" d="M19.9434 6.50635C19.9534 6.54777 19.9384 6.51505 19.9281 6.52292C19.9157 6.52085 19.9103 6.51546 19.892 6.51381C19.8531 6.51091 19.8212 6.50179 19.7744 6.49889C19.6858 6.49061 19.5864 6.4844 19.4845 6.47901C19.4078 6.47694 19.3378 6.50262 19.2579 6.49558C18.9796 6.47197 18.6801 6.41564 18.3852 6.3941C18.2535 6.3796 18.1255 6.38955 17.9958 6.38582C17.8297 6.37712 17.6562 6.36676 17.4847 6.29097C17.4325 6.2686 17.4412 6.29097 17.4818 6.26818C17.5237 6.25203 17.5858 6.13937 17.6628 6.06688C17.9325 5.77984 18.2179 5.5947 18.5583 5.57896C18.7621 5.57854 18.956 5.47251 19.1668 5.44517C19.4008 5.41825 19.6377 5.41617 19.9173 5.45511C20.0751 5.47085 20.375 5.56322 20.5117 5.74339C20.732 6.01097 20.7316 6.27108 20.7697 6.48523C20.7933 6.65505 20.8223 6.81037 20.8008 6.97191C20.7979 7.00712 20.7967 7.04108 20.7909 7.07629C20.7726 7.20759 20.737 7.26309 20.742 7.29167C20.7416 7.29871 20.7436 7.307 20.7449 7.31031C20.7552 7.31901 20.7196 7.28008 20.6244 7.20345C20.5104 7.08126 20.3775 6.94913 20.2532 6.82984C20.1489 6.70682 20.037 6.59706 19.9658 6.52333C19.9364 6.50055 19.9094 6.47446 19.8862 6.4699C19.8742 6.46659 19.8643 6.45913 19.8593 6.46286L19.8519 6.46369C19.8473 6.467 19.8515 6.46286 19.8655 6.45085C19.8763 6.44049 19.8796 6.44049 19.8871 6.43428C19.9107 6.4173 19.9397 6.38499 19.9542 6.36635C19.9637 6.35765 19.9728 6.34564 19.9807 6.33031C19.9782 6.33404 19.977 6.34067 19.977 6.34067V6.34108V6.3415C19.9674 6.37049 20.061 6.08718 20.0213 6.2073L20.0209 6.20813L20.0205 6.20937L20.0192 6.21227L20.0147 6.22262L20.0068 6.24416L19.9782 6.3299C19.9616 6.38789 19.95 6.44629 19.9434 6.50511V6.50635Z" fill="#231F20"/>
<path fill-rule="evenodd" clip-rule="evenodd" d="M7.15448 29.0223C8.37057 29.789 9.59495 30.5486 10.8272 31.2946C11.2766 31.5676 11.7426 31.8119 12.1907 32.0861L16.9308 34.9971C17.635 35.4229 18.3553 35.8289 19.0681 36.2269C19.9864 36.7331 20.8952 37.2661 21.7613 37.8659C22.0301 38.0544 21.9311 38.138 21.6225 38.1206C21.3152 38.1007 20.7887 37.9993 20.2411 37.7404C19.2665 37.2906 18.3288 36.7753 17.3931 36.2505C16.4574 35.7265 15.5288 35.1848 14.6109 34.614C13.5112 33.9355 12.322 33.3072 11.1801 32.6416C9.92548 31.9085 8.67708 31.1625 7.43241 30.4086C6.66655 29.9439 5.90235 29.4771 5.1423 28.9983C4.8536 28.8202 4.5678 28.6305 4.28159 28.4433C4.13869 28.3521 3.9962 28.2515 3.85372 28.1504C3.77254 28.0908 3.65449 28.0183 3.56916 27.9433L3.49958 27.887C3.48839 27.8601 3.48218 27.8294 3.47348 27.8008C3.45526 27.7433 3.44076 27.6849 3.43206 27.6256C3.3778 27.3622 3.37325 27.2243 3.35295 27.0445L3.31029 26.5334C3.28502 26.1946 3.25976 25.8566 3.2349 25.5198C3.15662 24.4744 3.03112 23.4534 2.97437 22.4179C2.95987 22.1901 2.93916 21.9668 2.93212 21.7365C2.91597 21.3095 2.94952 21.0262 3.00295 20.8269C3.07461 20.6281 3.15662 20.5126 3.2552 20.4214C3.30035 20.3796 3.34177 20.3249 3.3807 20.3009C3.44656 20.2607 3.5062 20.3274 3.58325 20.4798C3.65739 20.6327 3.76839 20.8713 3.80816 21.1786C3.94816 22.0919 4.06165 23.0317 4.15277 23.9848C4.23437 24.935 4.29484 25.9108 4.38638 26.8544L4.4307 27.2574C4.43608 27.2686 4.41786 27.2528 4.44395 27.2731C4.71443 27.4678 5.0317 27.6592 5.32579 27.8534L7.16649 28.9987L7.15448 29.0223Z" fill="#231F20"/>
<path fill-rule="evenodd" clip-rule="evenodd" d="M22.0859 32.3473L22.0731 33.7908C22.0743 33.9664 22.1 34.1408 22.0984 34.3164C22.0901 34.9369 22.0818 35.5603 22.0735 36.1799C22.0706 36.4558 22.0872 36.7325 22.1075 37.0058C22.1298 37.3592 22.1895 37.7063 22.0988 38.0807C22.0714 38.1963 21.9095 38.1644 21.7479 38.067C21.5885 37.9701 21.4216 37.8189 21.4 37.6213C21.3358 36.9271 21.2637 36.2143 21.3209 35.4907C21.3545 35.057 21.2836 34.6122 21.2666 34.1711L21.2289 32.7135L21.2116 31.8155C21.2016 31.362 21.2169 30.9051 21.1971 30.454C21.1801 30.1036 21.1204 29.7594 21.1163 29.4053C21.115 29.327 21.1072 29.2504 21.1105 29.1712C21.1266 28.8763 21.1995 28.7769 21.3818 28.7401C21.424 28.731 21.4663 28.7177 21.5073 28.7152C21.6456 28.7078 21.7529 28.8357 21.7927 29.0296C21.8556 29.3253 21.9281 29.6323 21.9708 29.9458C22.0081 30.2589 22.0325 30.5783 22.0561 30.9005L22.0988 31.6204L22.1075 32.3457L22.0859 32.3473Z" fill="#231F20"/>
<path fill-rule="evenodd" clip-rule="evenodd" d="M48.0516 32.4114L41.8526 33.9638C41.0984 34.1506 40.352 34.3668 39.5965 34.5445L31.5962 36.4072C30.4149 36.6922 29.2278 36.9784 28.0556 37.2609C26.545 37.6113 25.0465 38.0296 23.4787 38.1775C22.9775 38.2032 23.0422 38.0545 23.4153 37.8316C23.7869 37.5947 24.4753 37.2662 25.3372 37.0558C28.3886 36.2875 31.4554 35.5365 34.5648 34.849C36.4258 34.4393 38.3319 33.8913 40.2186 33.4051L46.447 31.8141C47.7231 31.4819 49.0005 31.1506 50.2675 30.7981L51.0326 30.5806L51.2504 30.5164C51.2757 30.5007 51.3395 30.5057 51.3283 30.4622L51.3304 30.3561C51.3333 28.9251 51.3362 27.4969 51.3391 26.0808C51.3329 24.5375 51.2782 23.0227 51.2902 21.4906C51.2927 21.153 51.2906 20.8217 51.301 20.4812C51.3639 19.2175 51.4952 18.8111 51.7835 18.5726C51.8498 18.5183 51.9177 18.445 51.9807 18.4172C52.1981 18.3282 52.2926 18.8426 52.3 19.7489C52.3389 22.4491 52.3481 25.3128 52.3452 28.1919C52.3431 29.0315 52.3406 29.8728 52.3389 30.7169L52.2685 30.9261L52.2333 31.0305L52.2155 31.0822L52.2068 31.1083C52.2826 31.1626 52.1033 31.0363 52.1215 31.0495L52.1207 31.0512L52.1186 31.0537L52.1153 31.059L52.1078 31.0698L51.9943 31.2409C51.9641 31.3063 51.8717 31.3324 51.8133 31.3796C51.6742 31.4505 51.4816 31.4952 51.3428 31.5403L51.0885 31.6141L50.0778 31.8941L48.0607 32.4346L48.0516 32.4114Z" fill="#231F20"/>
<path fill-rule="evenodd" clip-rule="evenodd" d="M39.802 20.6289L35.1323 21.6404L33.4361 22.0405L27.4385 23.373C26.5525 23.5734 25.6657 23.7921 24.793 24.0166C23.6664 24.283 22.5439 24.592 21.4024 24.7817C21.0491 24.8488 21.0797 24.7991 21.3514 24.6388C21.4869 24.5576 21.684 24.447 21.9222 24.3244C22.1591 24.1952 22.4445 24.0647 22.7647 23.969L24.4633 23.4413C25.0316 23.2736 25.6053 23.1253 26.1781 22.9741C27.3242 22.6684 28.4802 22.3946 29.6495 22.1536C31.0466 21.8607 32.4789 21.4652 33.898 21.1243L38.5875 20.0283C39.5506 19.8071 40.514 19.5859 41.4762 19.3648C42.9333 19.028 44.4017 18.7062 45.8447 18.3537C46.9672 18.0832 48.0557 17.7664 49.1633 17.4814C49.4069 17.418 49.6438 17.3476 49.8902 17.2884C50.3512 17.1898 50.6615 17.1554 50.888 17.1745C51.113 17.1869 51.2505 17.2337 51.3698 17.3136C51.424 17.3501 51.4924 17.3816 51.5272 17.4188C51.6431 17.5386 51.2973 17.7593 50.6524 18.0199C48.7069 18.6407 46.6181 19.1316 44.5135 19.6067C42.9491 19.9533 41.3776 20.3017 39.809 20.6496L39.802 20.6289Z" fill="#231F20"/>
<path fill-rule="evenodd" clip-rule="evenodd" d="M10.4697 19.6664C11.3084 20.091 12.1517 20.5105 13.0013 20.9173L13.9399 21.3427C15.0346 21.8662 16.1297 22.3902 17.2236 22.9133C17.7095 23.1449 18.2045 23.3669 18.6932 23.5839C19.3195 23.8701 19.9632 24.124 20.5347 24.5531C20.7137 24.6832 20.6296 24.7474 20.4175 24.7515C20.3111 24.7536 20.1736 24.7416 20.0207 24.7138C19.8613 24.6869 19.6769 24.6554 19.503 24.5709C18.2405 24.0064 16.9316 23.4978 15.6741 22.8516C14.9186 22.4722 14.0977 22.1545 13.3086 21.7991C12.4417 21.4089 11.5781 21.0076 10.7186 20.5971L9.13554 19.8313C8.33779 19.4415 7.54791 19.0252 6.76093 18.6234C6.15247 18.3041 5.53117 18.0361 4.93017 17.699C4.79721 17.6265 4.66218 17.5631 4.53378 17.4811C4.06407 17.1526 3.95638 16.9886 3.97502 16.7658C3.97958 16.7148 3.97626 16.6601 3.9891 16.6175C4.03011 16.4783 4.29934 16.4965 4.65638 16.6717C5.72378 17.1841 6.81436 17.793 7.94637 18.3654C8.78472 18.7929 9.62471 19.2323 10.4767 19.649L10.4697 19.6664Z" fill="#231F20"/>
<path fill-rule="evenodd" clip-rule="evenodd" d="M46.2239 13.4141C46.2239 13.8411 46.2243 14.269 46.2346 14.6977C46.2384 14.8538 46.2682 15.0075 46.2694 15.1641C46.2715 15.7166 46.2777 16.27 46.2699 16.8246C46.2703 17.0706 46.2918 17.3158 46.3167 17.5581C46.3519 17.8688 46.3697 18.184 46.3042 18.5013C46.2827 18.6003 46.1543 18.594 46.0097 18.5207C45.8677 18.4466 45.6937 18.3078 45.6473 18.1339C45.5562 17.8249 45.5231 17.5126 45.4974 17.197C45.4733 16.8813 45.4526 16.5645 45.4796 16.2406C45.5077 15.8537 45.4278 15.4606 45.4029 15.0692L45.34 13.7732L45.311 12.9738C45.2957 12.5699 45.2973 12.1628 45.2629 11.7631C45.2402 11.4516 45.1598 11.1488 45.1233 10.8386C45.1196 10.7702 45.1072 10.7039 45.1105 10.6344C45.113 10.5702 45.1188 10.5167 45.1291 10.472C45.1441 10.4273 45.1755 10.3912 45.2004 10.3614C45.2542 10.3018 45.3164 10.2678 45.3975 10.24C45.4344 10.228 45.4692 10.2115 45.5023 10.2044C45.6063 10.18 45.7281 10.2831 45.8561 10.4629C45.9066 10.5971 45.958 10.7317 46.0044 10.8684C46.035 11.0055 46.057 11.143 46.0793 11.2826C46.1207 11.5613 46.1473 11.8451 46.1704 12.1305C46.2028 12.5546 46.2293 12.9825 46.2467 13.4116L46.2239 13.4141Z" fill="#231F20"/>
<path fill-rule="evenodd" clip-rule="evenodd" d="M32.4133 12.4644C30.7578 12.7519 29.1018 13.0377 27.4529 13.3475L25.6565 13.7174C24.6027 13.9294 23.5407 14.1324 22.5148 14.4L22.1291 14.499L21.8023 14.6046L21.7228 14.629L21.6826 14.6406C21.6793 14.6526 21.6781 14.6667 21.676 14.6796L21.6681 14.7607L21.6578 14.9078L21.5741 16.5227C21.5306 17.48 21.5041 18.4438 21.488 19.3944C21.4681 20.6159 21.4772 21.8444 21.3765 23.0609C21.3231 23.8205 20.6757 22.8505 20.6649 21.4364C20.6641 20.1863 20.6765 18.9379 20.7097 17.6871C20.7238 17.0616 20.7544 16.4358 20.7892 15.8087L20.848 14.8647L20.8571 14.7297C20.8526 14.6547 20.8886 14.6004 20.9039 14.5362C20.947 14.4178 20.9748 14.2753 21.0352 14.1904L21.0452 14.1722L21.0477 14.1676L21.0489 14.1651C21.0601 14.1726 20.957 14.0939 21.0017 14.1262L21.0104 14.1191L21.046 14.0906L21.1168 14.0342C21.1628 13.9957 21.2071 13.9559 21.2809 13.9398L21.6267 13.8238C22.3888 13.5977 23.1332 13.427 23.8911 13.2402C24.6471 13.0638 25.4059 12.8815 26.1618 12.7291C27.824 12.3857 29.4903 12.0759 31.1558 11.7652C32.1805 11.576 33.2065 11.3871 34.2308 11.1982C35.7812 10.9087 37.3423 10.6324 38.8728 10.3052C40.0628 10.0513 41.2163 9.74684 42.3786 9.45193C42.6329 9.38359 42.8822 9.31608 43.1386 9.2469C44.0963 9.01371 44.3957 8.96773 44.667 9.13134C44.7279 9.16738 44.8041 9.19844 44.846 9.23945C44.9884 9.37696 44.638 9.62548 43.9397 9.87442C41.8741 10.5686 39.6531 11.0681 37.4177 11.5217C35.7572 11.8597 34.0871 12.1749 32.4199 12.4868L32.4133 12.4644Z" fill="#231F20"/>
<path fill-rule="evenodd" clip-rule="evenodd" d="M24.703 6.22325L28.9597 5.52325C29.4783 5.43834 29.9923 5.32899 30.5117 5.25195C31.4287 5.11609 32.3478 4.98893 33.2757 4.88869C33.742 4.84437 34.2055 4.80088 34.6856 4.79053L35.0505 4.79094L35.2804 4.80668C35.3719 4.81331 35.4531 4.83443 35.5397 4.85183C35.7575 4.83195 35.765 5.06059 35.8333 5.21425C35.8594 5.29254 35.9009 5.38656 35.9141 5.45118L35.9555 5.62887C36.1436 6.47052 36.1804 7.31549 36.1771 8.13561C36.1767 9.19058 36.127 10.231 36.1212 11.2591C36.1204 11.5789 35.999 11.5523 35.8499 11.2856C35.6996 11.0197 35.5289 10.5023 35.5045 9.89306C35.4684 8.81573 35.4601 7.7562 35.3649 6.74845C35.3384 6.49662 35.3003 6.25017 35.2518 6.00869C35.2278 5.88899 35.1934 5.77053 35.1669 5.65538C35.1619 5.6268 35.1661 5.62058 35.1607 5.6007C35.1541 5.59739 35.1474 5.59242 35.1396 5.59035C35.1346 5.58952 35.1321 5.58828 35.13 5.58621L35.1267 5.58372L35.0865 5.58041C34.9685 5.57834 34.8446 5.57709 34.7191 5.58041C34.4644 5.58828 34.2035 5.60567 33.9413 5.62431C32.6792 5.72124 31.3666 5.99295 30.076 6.21869L25.808 6.98248L23.1799 7.46129C21.8533 7.70443 20.5166 7.93224 19.2007 8.18614C18.1768 8.3804 17.1836 8.63348 16.1655 8.81987C15.9418 8.86253 15.7235 8.91058 15.4957 8.94413C15.074 9.00957 14.7907 9.0278 14.589 9.00543C14.3852 8.97271 14.2635 8.90726 14.1603 8.80206C14.1135 8.75401 14.0539 8.70845 14.0249 8.66081C13.9292 8.50715 14.2506 8.29839 14.8487 8.15176C16.6236 7.7123 18.5165 7.34407 20.4251 6.98413C21.8429 6.71863 23.2686 6.45106 24.6963 6.20005L24.703 6.22325Z" fill="#231F20"/>
<path fill-rule="evenodd" clip-rule="evenodd" d="M13.5547 14.3253L13.5125 15.7037C13.5092 15.8719 13.5274 16.0388 13.5216 16.2066C13.4976 16.7993 13.4731 17.3949 13.4491 17.9864C13.44 18.2494 13.445 18.5149 13.4541 18.7771C13.4603 19.1155 13.5038 19.4535 13.3973 19.8047C13.3654 19.9137 13.2155 19.8731 13.0718 19.7703C12.9297 19.6668 12.7901 19.5148 12.7847 19.3271C12.7731 18.6677 12.757 17.9851 12.822 17.298C12.8655 16.8859 12.8179 16.4588 12.8162 16.0376L12.8237 14.6459L12.8319 13.7885C12.8344 13.3552 12.8543 12.9199 12.8452 12.4891C12.8423 12.154 12.7856 11.8252 12.7889 11.4892C12.788 11.4155 12.781 11.343 12.7843 11.2685C12.8042 10.9897 12.8609 10.904 13.0328 10.8621C13.0718 10.8522 13.1111 10.8385 13.1492 10.8348C13.2789 10.822 13.3791 10.9417 13.4147 11.1359C13.4632 11.4255 13.5241 11.722 13.5406 12.024C13.558 12.3247 13.5696 12.6333 13.5734 12.941C13.587 13.3995 13.5771 13.8618 13.5729 14.3244L13.5547 14.3253Z" fill="#231F20"/>
<path fill-rule="evenodd" clip-rule="evenodd" d="M10.1819 10.9716L10.1305 12.8247C10.1264 13.05 10.1458 13.2749 10.1392 13.5003C10.1102 14.2955 10.0812 15.0929 10.0522 15.8873C10.0414 16.2402 10.0477 16.596 10.0593 16.9468C10.0684 17.4008 10.1206 17.8473 10.0025 18.322C9.96606 18.4698 9.79748 18.4189 9.63636 18.2859C9.47855 18.1559 9.31659 17.9508 9.30997 17.6953C9.29133 16.7977 9.2731 15.879 9.34849 14.9553C9.39819 14.4016 9.34642 13.8275 9.346 13.2613L9.35843 11.3932L9.36878 10.2426C9.37085 9.66186 9.39198 9.07825 9.37997 8.50086C9.37168 8.05186 9.30997 7.61157 9.30707 7.16299C9.30582 7.064 9.29795 6.96707 9.30127 6.86725C9.31701 6.49571 9.38825 6.37394 9.58002 6.31429C9.62434 6.30063 9.66866 6.28116 9.71174 6.27536C9.85712 6.25589 9.96937 6.4137 10.0079 6.67133C10.0651 7.05944 10.138 7.45997 10.1578 7.86796C10.1819 8.27512 10.1935 8.69015 10.2017 9.10683C10.2175 9.72482 10.2075 10.3478 10.2026 10.9703L10.1819 10.9716Z" fill="#231F20"/>
<path fill-rule="evenodd" clip-rule="evenodd" d="M21.4779 3.60284L18.6642 4.07254L17.6432 4.27426C16.4375 4.4826 15.2305 4.69136 14.0256 4.8997C13.4913 4.99579 12.9578 5.1126 12.4322 5.23023C11.7566 5.38224 11.084 5.56035 10.3927 5.63615C9.96272 5.68626 10.3831 5.03224 11.1573 4.83964C12.532 4.51118 13.9125 4.21213 15.3233 3.9926C16.1678 3.86668 17.029 3.64923 17.8851 3.48106L20.7149 2.9513L22.4596 2.63899C23.3393 2.4787 24.2274 2.33746 25.0984 2.16515C25.7765 2.03426 26.4326 1.85698 27.1003 1.70621C27.2473 1.67266 27.3894 1.63207 27.5389 1.60391C28.0918 1.49953 28.2778 1.52811 28.4323 1.73687C28.4675 1.78408 28.511 1.83006 28.535 1.87976C28.6154 2.04752 28.4124 2.22894 28.016 2.34325C26.841 2.68704 25.5818 2.90905 24.3156 3.13479C23.3737 3.29674 22.4272 3.45952 21.4829 3.62189L21.4779 3.60284Z" fill="#231F20"/>
<path fill-rule="evenodd" clip-rule="evenodd" d="M23.7916 0.566651C24.1503 0.511148 24.5095 0.455231 24.8669 0.400143C24.997 0.380261 25.1229 0.343397 25.2534 0.326829C25.7119 0.273812 26.1741 0.220794 26.6318 0.167776C26.8352 0.143753 27.0365 0.102747 27.2382 0.0733388C27.4971 0.0319188 27.7522 -0.0260693 28.0339 0.0128655C28.1263 0.0277767 28.106 0.128427 28.0455 0.234877C27.9846 0.340912 27.8823 0.464758 27.741 0.501208C27.2407 0.635823 26.7238 0.728189 26.1907 0.762154C25.8713 0.784106 25.5545 0.8831 25.2368 0.947715C24.888 1.01896 24.5385 1.09061 24.1893 1.16186C23.9756 1.20866 23.7627 1.25712 23.5556 1.31594L23.2631 1.40251C23.2292 1.4141 23.1935 1.4257 23.1633 1.44683C23.1285 1.46837 23.1467 1.51268 23.1397 1.54665L23.138 1.61334L23.1393 1.72765C23.1443 1.98694 23.1952 2.24168 23.2379 2.48895C23.2478 2.5428 23.266 2.59582 23.266 2.64801C23.2664 2.74659 23.2627 2.80292 23.2167 2.84765C23.1559 2.88907 23.0867 2.92221 23.0022 2.95617C22.9632 2.97274 22.9289 2.99469 22.8953 3.01043C22.8382 3.03694 22.7814 3.03818 22.7035 2.99718C22.6298 2.95949 22.5259 2.89321 22.5068 2.8054C22.4074 2.57428 22.395 2.35227 22.3854 2.12984C22.3825 2.01884 22.3846 1.90825 22.3888 1.7989L22.3974 1.6357L22.4037 1.51393C22.4061 1.45884 22.4099 1.40416 22.4169 1.35115C22.4206 1.27162 22.4434 1.20452 22.4674 1.13825C22.5544 1.096 22.5242 0.982922 22.6095 0.944816C22.6675 0.888485 22.7483 0.847893 22.8253 0.808958C22.9094 0.778308 22.9918 0.741858 23.078 0.718248L23.2366 0.673929C23.4243 0.625882 23.6061 0.587775 23.7871 0.550497L23.7916 0.566651Z" fill="#231F20"/>
<path fill-rule="evenodd" clip-rule="evenodd" d="M20.388 5.91494C20.0351 5.94187 19.6727 5.98577 19.3128 6.03796C19.1811 6.05743 19.0535 6.09553 18.9218 6.11417C18.4566 6.18045 17.989 6.24589 17.5255 6.32749C17.3196 6.36352 17.1171 6.41861 16.9146 6.46417C16.6553 6.52713 16.4001 6.60583 16.1218 6.60707C16.0327 6.60666 16.0286 6.50559 16.075 6.38962C16.1218 6.27488 16.2191 6.13571 16.3633 6.08477C16.8727 5.8963 17.4025 5.76956 17.9525 5.70909C18.2814 5.67181 18.6066 5.56204 18.9363 5.49246C19.2991 5.41707 19.664 5.34997 20.0343 5.29157L20.3785 5.24228C20.4688 5.23234 20.685 5.19838 20.8341 5.20293C20.9427 5.20293 21.0421 5.21784 21.117 5.275C21.2082 5.32305 21.2098 5.4324 21.2446 5.52974C21.2984 5.84039 21.3262 5.98494 21.3697 6.18127C21.4289 6.44139 21.5321 6.68908 21.6149 6.94837C21.6331 7.00553 21.6596 7.06104 21.6658 7.12151C21.6795 7.23376 21.6787 7.31287 21.634 7.37293C21.5718 7.43589 21.5022 7.47192 21.4103 7.49926C21.3689 7.51086 21.3299 7.52287 21.2943 7.52577C21.233 7.53074 21.1775 7.50713 21.11 7.48269C21.0437 7.45494 20.9447 7.41103 20.9228 7.34186C20.7045 6.92891 20.6556 6.43808 20.5852 5.95264C20.5765 5.91577 20.5877 5.94021 20.5811 5.93441C20.5885 5.92985 20.5885 5.9253 20.5869 5.92074C20.586 5.91826 20.5835 5.9166 20.5806 5.91411L20.3913 5.93151L20.388 5.91494Z" fill="#231F20"/>
<path fill-rule="evenodd" clip-rule="evenodd" d="M40.0114 30.4687C39.2025 30.6497 38.3923 30.8109 37.5821 30.9674C37.2864 31.0242 36.9964 31.1062 36.6994 31.1567C36.1763 31.2462 35.6511 31.3274 35.1234 31.3998C34.8596 31.4355 34.5953 31.4715 34.3281 31.4993L33.9243 31.5332L33.718 31.5456C33.6592 31.5444 33.5271 31.5577 33.4384 31.551C33.3506 31.5494 33.2674 31.5382 33.1887 31.5129C33.1692 31.5071 33.1477 31.5009 33.1299 31.4918L33.0897 31.4438L33.0093 31.3477C32.9112 31.2172 32.8292 31.037 32.7861 30.8871C32.707 30.6257 32.6809 30.3677 32.6713 30.1208C32.6622 29.8039 32.668 29.4966 32.697 29.2C32.7285 28.9039 32.7753 28.6181 32.8014 28.3385C32.818 28.167 32.9455 28.1625 33.1021 28.3132C33.2566 28.4619 33.4326 28.785 33.4521 29.1375C33.4761 29.449 33.4463 29.7439 33.4654 30.016C33.4732 30.1506 33.4819 30.2832 33.5043 30.4C33.5122 30.4617 33.5275 30.5155 33.5407 30.5698C33.5461 30.598 33.5552 30.6224 33.5648 30.646C33.5764 30.6721 33.5619 30.6572 33.5664 30.6638C33.5656 30.6696 33.561 30.6883 33.5702 30.6965C33.5743 30.7007 33.5797 30.7044 33.5867 30.7081C33.578 30.7119 33.6178 30.7085 33.6542 30.7056L33.7599 30.6961C34.0465 30.6675 34.3464 30.6332 34.6491 30.6129C35.374 30.554 36.1104 30.3565 36.8411 30.2094C37.6455 30.0462 38.4503 29.8793 39.2501 29.6938C39.7426 29.5794 40.2342 29.4626 40.7193 29.3276C41.4495 29.1193 42.2013 28.9159 42.8561 28.5986C42.9182 28.5675 42.9791 28.5348 43.0346 28.5C43.0819 28.4715 43.1055 28.452 43.1374 28.4246C43.1659 28.3981 43.1937 28.3712 43.209 28.3364C43.2256 28.3008 43.2119 28.2586 43.2098 28.2221L43.202 28.1678L43.1941 28.0659L43.1738 27.8543L43.1208 27.4368C43.1026 27.3158 43.074 27.199 43.0541 27.0826C42.9916 26.6461 43.0508 26.5537 43.2471 26.3657C43.2894 26.3201 43.3324 26.2741 43.3735 26.2298C43.5052 26.0724 43.8117 26.2439 43.9749 26.6378C44.0983 26.9228 44.136 27.2115 44.1782 27.4968C44.1965 27.6402 44.2085 27.7835 44.2172 27.928L44.2259 28.1446L44.2271 28.2039C44.2234 28.2362 44.2246 28.2693 44.2234 28.3025C44.2197 28.3675 44.225 28.4362 44.2139 28.4992C44.194 28.756 44.0527 28.9933 43.8378 29.1516C43.7384 29.2315 43.6079 29.3152 43.5097 29.3674C43.4348 29.4096 43.3635 29.4448 43.2914 29.48C43.0077 29.6142 42.7339 29.717 42.4593 29.8122C41.6462 30.0918 40.8298 30.284 40.0188 30.4911L40.0114 30.4687Z" fill="#231F20"/>
<path fill-rule="evenodd" clip-rule="evenodd" d="M3.57425 25.8553C3.57425 25.8553 1.46018 25.234 0.170356 26.243C-0.974494 27.1389 3.68153 31.7925 13.216 33.4265L3.7768 27.6981L3.57425 25.8553Z" fill="#231F20"/>
<path fill-rule="evenodd" clip-rule="evenodd" d="M38.6626 20.2032L34.4916 21.1509L32.9768 21.5241L27.6216 22.7779C26.8301 22.9647 26.0386 23.1714 25.259 23.3793C24.2534 23.6303 23.2514 23.9157 22.2308 24.1C21.9152 24.1638 21.9438 24.1199 22.1865 23.9778C22.3083 23.9049 22.4835 23.8076 22.6964 23.6974C22.908 23.581 23.1628 23.465 23.4486 23.3764C24.4567 23.0413 25.4694 22.7282 26.4958 22.4577C27.5193 22.1748 28.5511 21.9163 29.5953 21.6894C30.8433 21.4118 32.1219 21.0465 33.3902 20.7297L37.5786 19.7074L40.1591 19.0902C41.4609 18.7759 42.7731 18.4768 44.0625 18.1517C45.0648 17.899 46.039 17.614 47.0265 17.3477C47.244 17.2885 47.4556 17.2247 47.6764 17.1713C48.0869 17.0776 48.3631 17.0416 48.5653 17.0536C48.7666 17.0594 48.8892 17.0967 48.9964 17.163C49.0453 17.1932 49.1066 17.2189 49.1381 17.25C49.2425 17.3502 48.9351 17.5469 48.359 17.7843C46.6189 18.3521 44.7521 18.8073 42.8721 19.2489C41.4741 19.5724 40.07 19.8967 38.6688 20.2206L38.6626 20.2032Z" fill="#231F20"/>
<path fill-rule="evenodd" clip-rule="evenodd" d="M29.3667 8.16879C29.5904 8.14104 29.8149 8.11329 30.0373 8.08595C30.1185 8.07477 30.1976 8.05199 30.2792 8.04246C30.5662 8.01015 30.8582 7.97743 31.1428 7.94512C31.2704 7.93145 31.3967 7.90619 31.521 7.87968C31.6804 7.84489 31.8378 7.79642 32.0056 7.80471C32.11 7.80761 32.0424 8.13441 31.8618 8.19033C31.5396 8.27648 31.2161 8.35725 30.8752 8.36388C30.6718 8.37133 30.471 8.43181 30.268 8.46577C30.046 8.50056 29.8215 8.53619 29.5982 8.57139C29.4603 8.59335 29.3216 8.61571 29.1849 8.63725C28.9529 8.67536 28.7587 8.66914 28.5487 8.70974C28.3892 8.73666 28.2364 8.79009 28.0806 8.83317C28.0462 8.84269 28.0131 8.85636 27.9783 8.8634C27.8491 8.89033 27.8031 8.86672 27.7571 8.75116C27.7468 8.72506 27.7343 8.69938 27.7265 8.67246C27.7 8.58258 27.7418 8.49808 27.8342 8.45707C28.1071 8.33406 28.4058 8.27855 28.7127 8.23838C28.8224 8.22181 28.9591 8.21684 29.0358 8.20814L29.3642 8.15802L29.3667 8.16879Z" fill="#231F20"/>
<path fill-rule="evenodd" clip-rule="evenodd" d="M27.9572 10.62C28.3573 10.5583 28.7579 10.4966 29.1567 10.4353C29.3029 10.4071 29.4454 10.3798 29.5916 10.352C30.1048 10.2683 30.6213 10.1843 31.1329 10.101C31.3611 10.0633 31.5877 10.0132 31.8109 9.96184C32.0976 9.89515 32.3825 9.81439 32.6783 9.78953C32.8622 9.77172 32.7027 10.123 32.3755 10.2166C31.7927 10.3694 31.2078 10.5144 30.6015 10.5815C30.2394 10.6258 29.8737 10.7223 29.5084 10.7902L28.301 11.0015L27.5575 11.1278C27.1827 11.1933 26.8041 11.2504 26.4338 11.3241C26.1459 11.3821 25.8684 11.4637 25.5859 11.5346C25.5242 11.5503 25.4616 11.5665 25.4003 11.5822C25.1663 11.6311 25.086 11.6145 25.0147 11.5047C24.9986 11.4795 24.9791 11.4554 24.9675 11.4294C24.929 11.3415 25.0118 11.2488 25.1788 11.1912C25.675 11.0226 26.2093 10.9133 26.7482 10.813C27.1491 10.7455 27.5521 10.6772 27.9547 10.6092L27.9572 10.62Z" fill="#231F20"/>
</svg>
