<svg width="157" height="207" viewBox="0 0 157 207" fill="none" xmlns="http://www.w3.org/2000/svg">
<path fill-rule="evenodd" clip-rule="evenodd" d="M151.133 47.8276C150.395 47.1512 149.385 46.667 148.324 46.311C147.265 45.9455 146.146 45.6855 145.008 45.4896C142.732 45.0977 140.398 44.9018 138.051 44.8396C133.362 44.7096 128.625 44.9451 123.991 45.4952C123.248 45.629 122.872 40.6534 123.686 40.6949C128.61 40.6609 133.477 40.9586 138.333 41.6312C140.758 41.9684 143.179 42.4394 145.568 43.1308C146.76 43.4756 147.947 43.8901 149.102 44.4383C150.25 44.9771 151.401 45.6591 152.32 46.7104C153.117 47.7315 151.749 48.3626 151.133 47.8276Z" fill="#231F20"/>
<path fill-rule="evenodd" clip-rule="evenodd" d="M3.61432 121.424L2.55176 95.05L2.08076 85.4361C1.71527 74.1285 1.48166 62.8171 1.27631 51.5057C1.21979 46.485 0.991827 41.4434 0.826037 36.4622C0.620684 30.068 0.128967 23.6324 0.993711 17.2269C1.2424 15.2298 1.82643 15.5011 2.65726 17.1835C3.0755 18.0257 3.57475 19.2201 4.07966 20.6595C4.52239 22.1007 4.79557 23.7869 4.88788 25.62C5.42105 38.6307 5.66973 51.6489 5.65278 64.8123C5.64336 72.6835 6.20478 80.8543 6.53636 88.8951L7.64602 115.429C7.90789 120.874 8.16976 126.318 8.43164 131.757C8.87626 139.994 9.28696 148.276 9.9049 156.441C10.3891 162.79 11.1333 168.994 11.7889 175.251C11.9434 176.628 12.0941 177.977 12.2505 179.363C12.5915 184.526 12.4087 186.185 11.4272 187.367C11.2256 187.644 11.0522 188.007 10.8789 188.186C10.391 188.823 9.13248 186.69 8.54091 182.937C6.6965 171.769 5.88074 159.923 5.0386 148.027C4.44515 139.192 3.99111 130.305 3.50693 121.441L3.61432 121.424Z" fill="#231F20"/>
<path fill-rule="evenodd" clip-rule="evenodd" d="M145.684 138.409C147.502 115.304 149.499 92.2119 150.991 69.1389C151.255 64.932 151.466 60.7194 151.602 56.5295C151.671 54.4345 151.732 52.3358 151.733 50.2747C151.754 49.231 151.722 48.2249 151.705 47.2132C151.696 46.7385 151.639 46.1978 151.624 45.8549C151.611 45.6721 151.609 45.5742 151.551 45.4517C151.492 45.3933 151.434 45.3349 151.362 45.2878C151.306 45.2369 151.242 45.2068 150.97 45.058C150.526 44.8168 149.998 44.6039 149.446 44.4118C148.333 44.0293 147.101 43.7448 145.846 43.5131C143.325 43.0591 140.682 42.8255 138.029 42.6879C135.373 42.5504 132.692 42.5203 130.008 42.5542L125.98 42.6578C123.973 42.7313 121.462 42.9253 119.244 43.0817L119.719 39.536L119.917 37.7821L120.058 36.29L120.377 32.1603C120.559 29.3965 120.701 26.6252 120.802 23.8538C120.904 21.0825 120.97 18.3093 120.963 15.5587L120.934 13.5052L120.866 11.7229C120.85 11.4403 120.833 11.1521 120.776 10.8639C120.78 10.4701 120.362 10.5888 120.105 10.5718L119.502 10.5869L118.131 10.6547L115.256 10.8168L109.483 11.1709L97.9178 11.8548C84.6961 12.5688 71.3802 13.1774 58.1999 13.1416C49.7333 13.1152 41.2253 12.8741 32.7173 11.885C28.467 11.3575 24.2149 10.6641 20.0118 9.52623C15.8501 8.33933 11.5678 6.85287 8.00332 3.6878C7.47204 3.16217 6.99916 2.74958 6.6883 2.29554C6.39064 1.82078 6.17775 1.42138 6.03833 1.09733C5.75951 0.447363 5.77458 0.110131 6.00819 0.0234685C6.2418 -0.0631942 6.69584 0.0950595 7.29494 0.417219C7.59449 0.577357 7.92796 0.778942 8.28403 1.01255C8.69097 1.19907 9.14312 1.40819 9.64426 1.63992C11.6074 2.54046 14.3749 3.4881 17.9507 4.18517C21.502 4.91426 25.7428 5.54163 30.4094 6.22174C37.7023 7.28242 45.1779 7.72327 52.6667 7.93427C60.1611 8.14151 67.6913 8.10571 75.2329 7.92862C82.7763 7.74776 90.3348 7.43314 97.9084 7.05069C101.699 6.84534 105.493 6.63998 109.289 6.43463L115.004 6.12001L117.882 5.97871L119.429 5.91088L122.019 5.85625C123.604 6.10493 124.915 7.06388 125.194 8.87437C125.352 9.75607 125.435 10.6905 125.488 11.5967L125.537 13.2245C125.573 15.3534 125.537 17.4446 125.475 19.5358C125.369 23.0475 125.207 26.5649 125 30.1143C124.877 31.8909 124.757 33.675 124.633 35.4667L124.467 37.3638L124.359 38.2022L126.957 38.0873C128.738 38.0194 130.524 37.9799 132.315 37.9705C135.902 37.9573 139.51 38.0477 143.16 38.4207C144.985 38.611 146.822 38.871 148.685 39.3024C149.616 39.5191 150.554 39.7772 151.506 40.1314C152.502 40.544 153.293 40.7813 154.601 41.7742C154.899 41.9927 155.166 42.2414 155.437 42.4901L155.844 42.8631C155.989 42.9799 155.948 43.2041 156.008 43.3718C156.133 44.0708 156.364 44.8545 156.368 45.4875C156.457 46.4747 156.479 47.396 156.491 48.3059C156.517 50.1334 156.487 51.9194 156.432 53.7016C156.038 65.4576 155.157 77.0855 154.32 88.7435L151.615 123.663C150.49 137.985 149.339 152.309 148.371 166.621C148.009 172.042 147.658 177.467 147.376 182.891C147.242 185.602 147.114 188.313 147.041 191.015L146.992 193.04L146.976 195.463L146.956 196.19L146.944 196.556C146.924 196.667 146.773 196.714 146.694 196.797L145.531 197.692C145.168 198.006 144.695 198.234 144.346 198.427C144.007 198.598 143.676 198.815 143.331 198.943C137.826 201.173 132.263 201.392 126.782 201.678C121.296 201.838 115.842 201.705 110.425 201.418C102 200.979 93.6939 200.265 85.4289 199.465C81.3049 199.05 77.1866 198.634 73.0663 198.219C71.0316 198.023 68.9253 197.797 67.0093 197.709C65.1348 197.697 62.9607 197.777 60.9599 197.871C57.3634 198.046 53.8762 198.404 50.3117 198.903C43.7121 199.862 39.4732 201.019 36.4362 201.667C33.4087 202.355 31.5907 202.586 30.0006 202.487C29.2771 202.447 28.3502 202.485 27.8792 202.349C27.0861 202.121 27.9075 201.313 30.1381 200.092C32.3763 198.901 36.0538 197.33 41.0181 196.026C48.375 194.046 56.1237 193.153 63.8424 192.912C64.8296 192.89 65.7207 192.852 66.7927 192.854C67.9739 192.873 68.8782 192.965 69.8786 193.042C71.7927 193.229 73.7125 193.417 75.6379 193.604C79.4436 194.001 83.2661 194.399 87.1 194.798C94.7565 195.565 102.46 196.264 110.173 196.674C117.863 197.057 125.656 197.279 133.088 196.471C135.814 196.154 138.546 195.676 140.774 194.815C141.044 194.704 141.338 194.608 141.588 194.489L141.929 194.297C142.057 194.227 142.17 194.167 142.157 194.18L142.189 194.169L142.191 194.161V193.34L142.238 191.109C142.391 185.18 142.73 179.334 143.086 173.475C143.817 161.77 144.691 150.093 145.562 138.428L145.684 138.409Z" fill="#231F20"/>
<path fill-rule="evenodd" clip-rule="evenodd" d="M156.346 43.4576C153.041 36.8072 147.802 30.8595 143.019 25.249C137.721 19.0376 132.139 12.6415 125.573 7.72997C124.865 7.20057 123.146 7.81851 122.427 8.07473C122.144 8.17458 120.296 8.87919 120.929 9.35207C127.514 14.2768 133.122 20.6955 138.418 26.9333C143.09 32.4383 148.196 38.2616 151.432 44.7745C151.977 45.8672 156.676 44.1208 156.346 43.4576Z" fill="#231F20"/>
<path fill-rule="evenodd" clip-rule="evenodd" d="M28.7695 63.5213C29.8509 62.6905 30.8476 62.2157 31.8216 61.9633C32.8201 61.66 33.8205 61.5865 34.8077 61.6129C41.4449 61.7429 48.165 61.5526 54.8663 61.4791C60.6369 61.4584 66.4188 61.4377 72.1894 61.4169C82.1293 61.253 92.0691 60.9535 102.017 60.6935L110.837 60.4787C113.654 60.3563 116.468 60.2376 119.298 60.1942C119.775 60.1848 120.274 60.0963 120.724 60.2037C121.934 60.4957 122.213 61.6091 121.329 62.4569C121.128 62.6491 120.905 62.9656 120.687 62.9712C118.505 63.0315 116.789 64.5556 114.49 64.5839C110.242 64.55 105.99 65.0172 101.734 65.2301C100.033 65.3149 98.3239 65.3318 96.6208 65.2998C94.4599 65.2226 92.2481 65.1434 90.0853 65.0643C87.1067 65.0078 73.1032 65.2471 59.6591 65.281C52.9352 65.2829 46.3564 65.2584 41.3582 65.0926C38.8601 65.0304 36.7519 64.9004 35.2353 64.8345C33.7018 64.7158 32.7636 64.6046 32.5978 64.5858C31.5352 64.4652 30.4406 64.0149 28.7695 63.5213Z" fill="#231F20"/>
<path fill-rule="evenodd" clip-rule="evenodd" d="M32.1963 89.7896C33.1647 88.9286 33.9936 88.4482 34.8244 88.1355C35.6703 87.8039 36.5125 87.704 37.3433 87.7021C42.9877 87.5853 48.7018 87.2349 54.4121 87.007C59.3293 86.8016 64.2577 86.8167 69.1881 86.6754C77.6697 86.4305 86.1627 86.1648 94.6858 86.1893L102.252 86.3137C104.675 86.3532 107.097 86.3683 109.535 86.5586C109.944 86.5831 110.381 86.5322 110.756 86.6697C111.772 87.0484 111.896 88.1769 111.067 88.9569C110.879 89.134 110.66 89.4335 110.473 89.426C108.612 89.3487 107.06 90.6845 105.119 90.6129C101.542 90.3303 97.9243 90.628 94.3203 90.7184C92.8772 90.7617 91.4322 90.7316 89.989 90.6581C88.1635 90.5488 86.2757 90.4358 84.4483 90.3284C81.92 90.2267 70.0246 90.4019 58.5889 90.709C52.871 90.8484 47.2681 90.969 43.0046 90.9652C38.7506 90.9953 35.8003 90.8013 35.5083 90.7353C34.5984 90.6411 33.6469 90.2568 32.1963 89.7896Z" fill="#231F20"/>
<path fill-rule="evenodd" clip-rule="evenodd" d="M34.5654 117.406C35.5828 116.547 36.4513 116.078 37.3386 115.76C38.2354 115.43 39.1303 115.336 40.0195 115.332C46.0256 115.225 52.0996 114.901 58.1678 114.695C63.3921 114.507 68.6277 114.544 73.8651 114.42C82.8724 114.205 91.8891 113.96 100.936 113.994C103.607 113.987 106.286 114.107 108.965 114.121C111.539 114.171 114.107 114.177 116.697 114.382C117.132 114.409 117.596 114.358 117.995 114.499C119.075 114.882 119.214 116.012 118.338 116.788C118.138 116.965 117.909 117.263 117.711 117.254C115.735 117.165 114.092 118.505 112.031 118.429C108.227 118.137 104.382 118.433 100.548 118.522C99.0143 118.565 97.4807 118.522 95.9453 118.459C94.001 118.346 92.0002 118.23 90.0579 118.115C87.3694 118.011 74.728 118.154 62.5782 118.414C56.5043 118.531 50.5547 118.627 46.0294 118.608C41.5135 118.625 38.3918 118.429 38.0809 118.363C37.1182 118.265 36.1122 117.887 34.5654 117.406Z" fill="#231F20"/>
<path fill-rule="evenodd" clip-rule="evenodd" d="M54.6152 146.34C55.6495 144.541 56.2769 144.111 57.0098 144.077C59.3855 143.977 61.8139 143.83 64.2348 143.778C66.3204 143.727 68.4116 143.894 70.5047 143.875C74.1049 143.84 77.7071 143.704 81.3111 143.582C82.3756 143.542 83.44 143.55 84.5045 143.474C85.5218 143.382 86.541 143.288 87.5584 143.241C87.7317 143.231 87.9088 143.141 88.0727 143.248C88.5154 143.538 88.6436 144.652 88.344 145.499C88.2762 145.692 88.2008 146.008 88.1217 146.018C87.3304 146.082 86.7332 147.6 85.8967 147.611C84.3462 147.547 82.8032 147.958 81.2565 148.113C80.6386 148.177 80.015 148.165 79.3932 148.111C78.6001 148.039 77.8069 147.849 77.0138 147.779C75.9286 147.683 70.8325 147.687 65.9379 147.61C63.4869 147.568 61.0886 147.504 59.2555 147.41C57.4318 147.336 56.1469 147.18 56.0207 147.127C55.6345 147.027 55.2275 146.705 54.6152 146.34Z" fill="#231F20"/>
<path fill-rule="evenodd" clip-rule="evenodd" d="M39.3871 198.943C39.3871 198.943 60.9322 192.865 88.5381 197.921C116.146 202.978 145.496 195.86 145.496 195.86C145.496 195.86 138.573 212.287 91.1869 203.762C63.9315 198.86 42.4316 206.509 37.603 206.51C34.7657 206.512 39.3871 198.943 39.3871 198.943Z" fill="#231F20"/>
</svg>
