<svg width="212" height="212" viewBox="0 0 212 212" fill="none" xmlns="http://www.w3.org/2000/svg">
<path fill-rule="evenodd" clip-rule="evenodd" d="M161.883 37.0706C161.962 36.2298 162.708 35.611 163.549 35.6897C167.717 36.0794 161.472 41.4496 161.883 37.0706Z" stroke="#231F20"/>
<path fill-rule="evenodd" clip-rule="evenodd" d="M184.563 50.2878C184.641 49.4469 185.388 48.8281 186.228 48.9069C190.397 49.2965 184.151 54.6667 184.563 50.2878Z" stroke="#231F20"/>
<path fill-rule="evenodd" clip-rule="evenodd" d="M178.484 94.8442C178.563 94.0033 179.309 93.3845 180.15 93.4633C184.319 93.8529 178.075 99.2231 178.484 94.8442Z" stroke="#231F20"/>
<path fill-rule="evenodd" clip-rule="evenodd" d="M33.951 137.983C34.2504 137.564 34.5397 137.148 34.7732 136.761C34.8878 136.572 34.9953 136.38 35.054 136.249L35.1099 136.128C35.1786 136.165 35.5983 136.231 35.7903 136.244C35.8762 136.264 35.965 136.272 36.0581 136.271L36.1956 136.261L36.2658 136.251L36.2744 136.249C36.3031 136.245 36.0624 136.272 36.167 136.261L36.1799 136.262L36.2042 136.264C36.5194 136.278 36.6841 136.01 36.5552 136.204C36.5007 136.315 36.4735 136.767 36.5939 137.291C36.6082 137.357 36.6297 137.397 36.6454 137.481L36.6669 137.596L36.664 137.597L36.6454 137.602C36.6454 137.602 36.6125 137.606 36.5738 137.623C36.5122 137.642 36.4306 137.673 36.3374 137.718C35.9722 137.882 35.5324 138.136 35.1027 138.402L34.4481 138.818L33.5542 139.424L31.1664 141.098C30.3871 141.627 29.5936 142.168 28.9318 142.496C28.2671 142.83 27.7214 142.995 27.306 143.033L26.4307 143.076C26.2359 143.059 26.0483 143.036 25.8119 142.952C25.5641 142.877 25.2347 142.585 25.057 142.324C24.6932 141.774 24.7333 141.349 24.7462 140.878C24.8078 140.318 24.9926 139.673 25.4037 138.868C25.7776 138.084 26.4909 137.11 27.1799 136.188L29.2598 133.572L30.5633 131.956C31.4099 130.876 32.2264 129.783 32.9096 128.66C33.5714 127.562 34.1573 126.314 34.1057 125.405C34.1043 125.157 34.0269 124.976 33.951 124.794L33.6932 124.184L34.6343 124.336C34.6859 124.345 34.7503 124.314 34.7704 124.247C34.7517 124.257 34.7503 124.356 34.7933 124.376C34.8449 124.634 35.1184 124.897 35.2717 125.079C35.2545 125.095 35.1972 125.151 35.127 125.238C34.9953 125.397 34.8477 125.601 34.7045 125.806L33.835 127.103C33.2506 127.989 32.6561 128.884 32.0144 129.756C31.0317 131.071 29.9889 132.409 28.5063 133.488C27.7629 134.013 26.8719 134.478 25.8205 134.625C24.7749 134.788 23.616 134.512 22.7952 133.938C21.7796 133.157 22.5847 132.734 23.5859 132.481C24.1002 132.313 24.6273 132.114 25.0026 131.832C25.3851 131.551 25.7016 131.269 26.2488 130.951C27.4234 130.25 28.6353 128.862 29.7268 127.434C30.2811 126.707 30.8183 125.946 31.3741 125.152L32.2507 123.926C32.414 123.707 32.5687 123.497 32.8094 123.22C32.901 123.11 33.0944 122.908 33.305 122.726C33.4038 122.646 33.5471 122.547 33.6774 122.472L33.8823 122.365L33.9926 122.315C34.0957 122.278 34.2089 122.245 34.3277 122.222C34.8076 122.121 35.3677 122.202 35.7229 122.406C36.1211 122.614 36.4936 123.021 36.6669 123.402L36.5552 123.193C37.2026 124.274 37.2299 125.489 37.0694 126.364C36.909 127.27 36.6082 128.016 36.2801 128.702C35.6055 130.048 34.7961 131.177 33.9582 132.254C32.9698 133.491 31.97 134.743 30.9615 136.005C30.761 136.259 30.5705 136.516 30.39 136.784C30.2339 137.052 29.9817 137.335 30.0047 137.708C30.0749 137.937 30.304 137.881 30.4401 137.807C30.9472 137.569 31.4657 137.199 32.0946 136.801L32.9412 136.245C33.3523 135.976 33.7763 135.711 34.2232 135.453C34.6844 135.198 35.1141 134.943 35.7888 134.735C35.9421 134.684 36.1784 134.641 36.4234 134.622C36.5795 134.618 36.77 134.639 36.9362 134.672C37.1568 134.735 37.4175 134.856 37.5994 135.028C38.0263 135.449 38.0764 135.857 38.1022 136.152C38.1122 136.459 38.0664 136.666 38.0191 136.857C37.7183 137.821 37.3158 138.359 36.9262 138.978C36.5308 139.571 36.124 140.128 35.7143 140.677C34.9107 141.756 34.0413 142.88 33.3336 143.874C33.103 144.192 32.8695 144.525 32.6575 144.883C32.4813 145.232 32.1734 145.649 32.3338 146.063C32.5272 146.364 32.8896 146.544 33.2434 146.477C33.5929 146.423 33.9109 146.239 34.2089 146.039C34.5082 145.834 34.7847 145.593 35.0526 145.345L36.6368 143.826C37.4519 143.084 38.3916 142.502 39.2453 142.276C39.6564 142.163 40.1563 142.124 40.5517 142.445C40.8783 142.766 40.9971 143.115 41.1189 143.528C41.2349 143.936 41.2765 144.459 41.2765 145.03C41.265 145.596 41.2177 146.276 41.2421 146.748C41.2736 147.146 41.3037 147.241 41.371 147.394C41.4369 147.536 41.5429 147.657 41.6818 147.72C41.9784 147.815 42.0786 147.768 42.6258 147.644C43.6285 147.394 44.3963 147.08 44.9593 146.994C45.5322 146.91 45.9376 146.965 46.3659 147.218C46.5607 147.328 46.7928 147.42 46.9446 147.551C47.4417 147.978 46.8085 148.988 44.9636 149.921C44.2674 150.267 43.5555 150.555 42.5599 150.74C41.4369 150.935 39.9457 150.681 39.1364 149.667C38.7096 149.186 38.446 148.566 38.3042 147.911C38.2254 147.551 38.2025 147.285 38.1824 147.04L38.1509 146.696C38.1208 146.635 38.1008 146.605 38.0779 146.592C38.0206 146.549 37.9346 146.696 37.9475 146.7C37.9704 146.685 37.9203 146.738 37.7641 146.894L37.353 147.294L36.7514 147.855C35.6542 148.833 34.461 149.651 33.3809 149.997C32.5472 150.272 31.8353 150.237 31.1019 150.06C30.3699 149.875 29.701 149.34 29.1395 148.749C28.8344 148.219 28.6138 147.854 28.5808 147.351C28.5221 146.875 28.5794 146.322 28.8057 145.689C28.9991 145.069 29.3787 144.38 29.7755 143.71C29.9932 143.373 30.1937 143.032 30.4287 142.7L30.9945 141.885C31.98 140.512 32.9942 139.219 33.8851 137.944L33.951 137.983Z" fill="#221F1F"/>
<path fill-rule="evenodd" clip-rule="evenodd" d="M51.0789 153.491L39.7584 154.793L38.3403 154.949L37.4421 155.032C36.9566 155.068 36.713 154.966 36.4523 154.953C35.411 154.777 34.3624 154.758 33.3339 154.412C32.2997 154.135 31.2669 153.86 30.2872 153.364C29.8001 153.128 29.2816 152.959 28.8218 152.658L27.4395 151.774C25.6719 150.5 24.0819 148.912 22.9803 147.047C21.8215 145.224 21.0179 143.21 20.581 141.15C20.114 139.095 19.9335 136.99 20.1183 134.885C20.1312 134.359 20.2286 133.83 20.3103 133.305C20.3762 132.778 20.485 132.25 20.6412 131.725C20.7715 131.198 20.9205 130.672 21.1525 130.146L21.5923 129.05C21.8301 128.741 22.2269 128.472 22.5019 128.211C26.6889 124.644 30.7398 120.907 34.8251 117.204C49.2397 104.137 63.352 90.6726 77.5531 77.3066C83.83 71.3434 90.1428 65.3472 96.371 59.4313C104.42 51.8738 112.396 44.12 121.464 37.6125C124.303 35.5899 124.487 36.6929 122.772 39.224C121.916 40.4874 120.582 42.0831 118.92 43.9653C118.082 44.895 117.143 45.8604 116.118 46.8588C115.107 47.8787 114.006 48.923 112.82 49.9629C96.0845 64.8516 79.9037 80.5238 63.1414 95.8494C53.1273 105.03 43.0401 114.952 32.6564 124.249C31.2254 125.524 29.8102 126.811 28.3462 128.056L26.166 129.937L25.076 130.875L24.7709 131.137C24.6935 131.182 24.6935 131.284 24.6505 131.365C24.0761 132.759 23.7796 134.574 23.7495 136.29C23.7438 138.036 24.0088 139.782 24.4844 141.454C24.97 143.128 25.7922 144.66 26.7806 146.046C27.8305 147.388 29.1197 148.52 30.5994 149.377C31.3486 149.782 32.145 150.124 32.9515 150.429L34.212 150.777C34.6274 150.911 35.0529 151.015 35.4983 151.051L36.8147 151.229C37.0368 151.253 37.2588 151.302 37.3319 151.29L37.9292 151.226L40.7711 150.906C50.1034 149.839 59.4357 148.695 68.7437 147.45C82.8417 145.558 96.9998 143.552 110.896 141.083C121.692 139.146 132.222 136.886 142.653 134.13C144.948 133.518 147.168 132.848 149.445 132.159C153.664 130.878 156.358 129.901 158.216 129.242C160.08 128.575 161.124 128.27 162.14 128.099C162.36 128.051 162.615 127.973 162.864 127.9C163.084 127.807 163.306 127.714 163.483 127.677C163.784 127.612 163.914 127.75 163.817 128.159C163.73 128.576 163.36 129.219 162.708 129.857C161.411 131.192 159.05 132.56 155.93 133.815C151.295 135.658 146.516 137.065 141.669 138.354C136.819 139.632 131.892 140.76 126.919 141.805C116.971 143.889 106.832 145.648 96.6575 147.264C81.5439 149.656 66.3186 151.687 51.109 153.582L51.0789 153.491Z" fill="#221F1F"/>
<path fill-rule="evenodd" clip-rule="evenodd" d="M52.568 150.678C49.0743 149.385 45.9215 147.202 43.2286 144.546C40.5556 141.863 38.4557 138.531 37.2582 134.851C36.0592 131.176 35.7828 127.174 36.4517 123.363C37.1092 119.56 38.4485 115.854 40.5685 112.7C41.2017 111.617 43.8245 113.303 43.3145 114.299L42.1199 116.627C41.7961 117.43 41.4996 118.241 41.1372 119.024C40.7404 119.801 40.5829 120.649 40.2892 121.457C39.9884 122.267 39.8251 123.104 39.6704 123.943C39.0186 127.285 39.01 130.759 39.901 134.066C40.7691 137.377 42.4923 140.467 44.7756 143.111C47.0417 145.797 49.9409 147.895 53.0221 149.723C54.3485 150.552 54.1251 151.211 52.568 150.678Z" fill="#221F1F"/>
<path fill-rule="evenodd" clip-rule="evenodd" d="M147.205 51.913C144.284 47.9638 140.973 44.1836 137.119 41.5122C136.165 40.8346 135.173 40.3118 134.196 39.8763C133.236 39.5153 132.261 39.3291 131.686 39.4509C131.4 39.5125 131.225 39.5827 131.063 39.7646C130.917 39.8076 130.633 40.4378 130.4 40.8418C130.111 41.2572 129.987 41.7986 129.813 42.3057C129.734 42.5636 129.628 42.8099 129.565 43.0778L129.424 43.9129C128.859 47.1789 129.336 50.7771 129.993 54.2823C130.592 57.3921 131.413 60.5019 132.433 63.5644C133.415 66.6356 134.568 69.6695 135.802 72.6747C138.291 78.6766 141.107 84.5696 144.216 90.3108C146.966 95.4088 150.014 100.387 153.22 105.151C155.291 108.203 157.473 111.186 159.723 114.086C160.849 115.535 161.986 116.974 163.161 118.346C164.32 119.729 165.533 121.098 166.771 122.181C167.163 122.559 167.375 122.724 167.5 122.946C167.622 123.161 167.649 123.366 167.566 123.536C167.483 123.707 167.288 123.844 166.95 123.921C166.615 124 166.103 124.015 165.569 123.874C163.3 123.393 159.931 121.178 157.237 117.732C152.432 111.623 148.292 105.167 144.421 98.5272C140.589 91.8722 137.092 85.0037 134.101 77.8644C132.318 73.5943 130.535 69.2197 128.995 64.6989C127.469 60.1796 126.15 55.5099 125.623 50.6439C125.406 47.961 125.285 45.2136 125.928 42.4132C126.075 41.7184 126.349 41.0266 126.562 40.3361C126.76 39.6414 127.217 39.0011 127.544 38.3393C127.638 38.1746 127.717 38.0142 127.823 37.8466L128.293 37.3008C128.459 37.1275 128.611 36.9398 128.796 36.7894L129.414 36.3955C129.828 36.1062 130.274 35.983 130.726 35.8684C131.186 35.7151 131.607 35.7137 132.036 35.7051C133.723 35.7137 135.178 36.1935 136.438 36.8195C137.737 37.4168 138.88 38.1789 139.989 38.9682C142.176 40.5768 144.094 42.4289 145.889 44.3684C150.285 49.1699 153.817 54.6032 156.866 60.2383C161.454 68.8057 164.811 78.0048 167.242 87.287C169.164 94.4978 170.666 101.684 171.557 109.028C171.731 110.646 171.958 112.227 172.097 113.864C172.264 116.928 172.409 118.845 172.172 120.402C171.946 121.839 171.582 122.573 171.081 123.199C170.852 123.485 170.641 123.86 170.452 124.086C170.146 124.54 169.591 123.93 169.342 122.77C169.203 122.192 169.11 121.471 169.031 120.648C168.965 119.822 168.849 118.985 168.722 117.858C167.497 104.985 165.166 91.5513 160.733 78.7267C157.437 69.2412 153.075 59.9991 147.136 51.9804L147.205 51.913Z" fill="#221F1F"/>
<path fill-rule="evenodd" clip-rule="evenodd" d="M134.21 69.7577C143.352 61.229 155.607 84.877 148.898 96.6172C146.653 100.548 131.058 72.697 134.21 69.7577Z" fill="#221F1F"/>
<path fill-rule="evenodd" clip-rule="evenodd" d="M177.6 84.871C177.403 84.9784 177.274 84.7492 177.11 84.308C177.06 84.1677 177.049 83.7437 177.11 83.6821C177.228 83.5632 177.354 83.4443 177.484 83.3612C177.564 83.3053 178.752 83.1349 179.146 83.0718C179.53 83.0088 179.909 83.016 180.282 83.0461L182.544 83.2151C182.71 83.228 182.872 83.2738 183.029 83.3469C183.569 83.5918 184.129 83.6878 184.699 83.7351C184.794 83.7422 184.887 83.7709 184.992 83.705C185.164 83.5961 186.689 83.8411 186.872 83.9456C187.328 84.2207 187.796 84.4255 188.258 84.6547C188.323 84.6891 188.402 84.6805 188.448 84.7865C188.556 85.03 188.71 85.0314 188.856 85.0844C189.061 85.1417 189.253 85.2764 189.442 85.4139C189.537 85.4783 189.616 85.6216 189.701 85.7218C189.779 85.8164 189.694 85.9983 189.657 86.0198C189.55 86.0728 189.607 86.1888 189.6 86.2748C189.597 86.3048 189.594 86.3435 189.585 86.3679C189.574 86.398 189.239 86.5254 188.884 86.6787C188.533 86.8076 188.176 86.8893 188.109 86.8893C188.08 86.8893 186.345 86.8678 186.079 86.8649C185.973 86.8692 185.877 86.7976 185.779 86.7475C185.732 86.7231 184.31 86.6701 184.255 86.6572C183.972 86.5842 183.668 86.62 183.415 86.3765C183.363 86.3278 183.303 86.3292 183.245 86.3249C182.744 86.2762 182.261 86.1287 181.777 85.9782C181.529 85.9066 181.274 85.888 181.022 85.8393C180.978 85.8307 180.936 85.7949 180.893 85.7734C180.838 85.7476 180.785 85.7118 180.727 85.7047C180.13 85.6187 179.548 85.4239 178.948 85.4196C178.812 85.4167 178.186 85.1231 178.03 85.1417C177.943 85.1431 177.68 84.8237 177.6 84.871Z" fill="#221F1F"/>
<path fill-rule="evenodd" clip-rule="evenodd" d="M81.4227 178.871C77.8617 180.25 73.8881 180.928 70.0191 180.44C68.6168 180.273 67.2044 180.084 65.8694 179.64C65.2878 179.429 64.6991 179.237 64.1404 178.982L63.2939 178.607L62.3871 178.107C61.2484 177.405 60.3144 176.617 59.4378 175.802C57.6945 174.172 56.1689 172.44 54.6778 170.693C53.3585 169.141 52.012 167.619 50.677 166.123C48.9652 164.205 47.1375 162.35 45.8397 160.169C44.9988 158.788 49.1429 157.933 51.058 160.233C54.4099 164.218 57.5255 168.312 60.8272 172.14C61.817 173.25 62.9802 174.28 64.1404 174.94C64.6532 175.234 65.3881 175.522 66.0885 175.758C66.7919 175.997 67.5024 176.202 68.2171 176.371C71.3556 177.152 74.6903 177.03 77.8918 176.1C79.8141 175.506 81.9126 174.727 83.3852 173.629C83.9266 173.195 84.4151 172.74 84.6787 172.147L84.9293 171.728C84.9967 171.585 85.011 171.433 85.0583 171.289L85.1929 170.846L85.19 170.386C85.2072 169.151 84.4667 167.815 83.4869 166.672C81.9484 164.86 79.8456 163.533 77.8087 162.07C77.3589 161.752 76.8805 161.445 76.4321 161.098C74.7576 159.782 74.3694 158.921 74.8479 157.917C74.9539 157.686 75.0455 157.44 75.1917 157.255C75.4395 156.94 75.8348 156.844 76.2674 156.896C76.6771 156.949 77.2143 157.156 77.7972 157.543C79.6064 158.692 81.5889 159.94 83.5112 161.509C84.471 162.32 85.4307 163.168 86.326 164.235C87.2284 165.245 88.0778 166.549 88.6236 168.15C88.7783 168.793 88.9989 169.391 88.9717 170.114C88.9788 170.464 88.9774 170.815 88.9674 171.161C88.933 171.505 88.8313 171.843 88.7525 172.183C88.6594 172.515 88.5849 172.872 88.4503 173.172L87.9919 174.033C87.6925 174.609 87.3201 175.149 86.8846 175.6C85.1198 177.441 83.1861 178.209 81.4643 178.956L81.4227 178.871Z" fill="#221F1F"/>
<path fill-rule="evenodd" clip-rule="evenodd" d="M169.855 47.9321C169.693 48.3102 169.262 48.3332 168.672 48.1527C168.483 48.0954 168.115 47.7158 168.138 47.584C168.182 47.3276 168.231 47.0726 168.311 46.8434C168.36 46.7045 169.645 44.9899 170.066 44.3882C170.48 43.811 170.944 43.2853 171.441 42.7882C172.449 41.7783 173.458 40.7628 174.492 39.7729C174.723 39.5523 174.973 39.3547 175.241 39.1771C176.164 38.5726 176.974 37.8478 177.757 37.0886C177.885 36.9611 178.036 36.8508 178.106 36.6646C178.222 36.3566 180.438 34.4056 180.799 34.2452C181.651 33.7897 182.459 33.2812 183.283 32.797C183.4 32.7282 183.492 32.6122 183.654 32.6179C184.035 32.6308 184.243 32.426 184.486 32.2641C184.817 32.0278 185.191 31.8473 185.572 31.6754C185.761 31.5923 185.997 31.5694 186.211 31.5193C186.406 31.4763 186.502 31.7456 186.474 31.8115C186.391 31.9963 186.592 32.0077 186.678 32.0851C186.708 32.1123 186.745 32.1467 186.759 32.1782C186.777 32.2312 185.517 34.3469 185.315 34.4973C185.294 34.5173 184.678 35.1161 184.028 35.7478C183.385 36.3809 182.723 37.0499 182.597 37.1946C182.463 37.3464 182.269 37.4281 182.091 37.5283C182.002 37.5742 180.107 39.4836 180.027 39.5523C179.587 39.8933 179.239 40.3359 178.675 40.5321C178.563 40.5722 178.487 40.6568 178.408 40.7341C177.725 41.4002 176.962 41.9789 176.225 42.5891C175.851 42.9028 175.513 43.2566 175.161 43.5947C175.096 43.6563 175.009 43.6921 174.936 43.7422C174.842 43.8052 174.741 43.8597 174.661 43.937C173.849 44.7607 172.929 45.4798 172.161 46.3535C171.984 46.5541 170.889 47.2646 170.693 47.5066C170.584 47.6399 169.92 47.7802 169.855 47.9321Z" fill="#221F1F"/>
<path fill-rule="evenodd" clip-rule="evenodd" d="M169.751 67.3426C169.613 67.473 169.453 67.5131 169.267 67.4873C169.118 67.463 168.923 67.3756 168.668 67.2682C168.507 67.198 168.231 66.8642 168.308 66.7396C168.447 66.5075 168.651 66.2354 168.811 66.0778C168.929 65.926 170.844 64.886 171.487 64.5365C172.109 64.2013 172.759 63.922 173.415 63.6799C174.743 63.1671 176.071 62.67 177.414 62.2203C177.712 62.1186 178.017 62.0412 178.33 61.9896C179.402 61.8077 180.43 61.4869 181.441 61.113C181.608 61.05 181.787 61.0099 181.928 60.8766C182.158 60.656 184.943 59.7694 185.324 59.7235C186.27 59.6046 187.196 59.4199 188.136 59.2838C188.271 59.2637 188.398 59.1935 188.546 59.258C188.885 59.4098 189.152 59.2924 189.437 59.2293C189.832 59.1434 190.23 59.0703 190.64 59.036C190.842 59.0202 191.068 59.0947 191.286 59.142C191.482 59.1864 191.485 59.5473 191.436 59.6003C191.292 59.7565 191.478 59.8739 191.534 60.0072C191.552 60.053 191.577 60.1132 191.58 60.1518C191.582 60.2363 189.548 61.4854 189.309 61.5613C189.255 61.5814 186.129 62.723 185.728 62.8692C185.545 62.9494 185.336 62.9537 185.134 62.978C185.038 62.988 182.521 63.9506 182.416 63.9764C181.876 64.1154 181.369 64.3617 180.779 64.3288C180.662 64.3231 180.557 64.3675 180.452 64.4047C179.549 64.7213 178.612 64.9304 177.686 65.1754C177.211 65.2971 176.757 65.4776 176.291 65.6237C176.207 65.6495 176.114 65.6466 176.025 65.6595C175.915 65.6767 175.8 65.6839 175.694 65.7183C174.598 66.0835 173.466 66.3385 172.406 66.7854C172.166 66.8886 170.897 67.0977 170.639 67.2424C170.49 67.3154 169.854 67.2295 169.751 67.3426Z" fill="#221F1F"/>
</svg>
