<svg width="44" height="38" viewBox="0 0 44 38" fill="none" xmlns="http://www.w3.org/2000/svg">
<mask id="mask0_1670_4850" style="mask-type:luminance" maskUnits="userSpaceOnUse" x="0" y="3" width="41" height="34">
<path fill-rule="evenodd" clip-rule="evenodd" d="M0 3.88477H40.4371V36.394H0V3.88477Z" fill="white"/>
</mask>
<g mask="url(#mask0_1670_4850)">
<path fill-rule="evenodd" clip-rule="evenodd" d="M28.3706 4.90684C26.0226 4.82923 23.6506 4.85394 21.2863 4.87479C18.9221 4.90453 16.559 4.97364 14.2025 5.10956C12.4823 5.20918 10.7686 5.37213 9.0662 5.56905C7.56687 5.74513 6.06986 5.96445 4.62497 6.322C3.90716 6.50309 3.19167 6.71739 2.56344 7.03131C2.24952 7.18615 1.96726 7.37458 1.75489 7.58309L1.6321 7.74488C1.58847 7.80009 1.58847 7.84411 1.55797 7.9028L1.49348 8.1422L1.44174 8.40515C1.312 9.11949 1.24559 9.87823 1.18651 10.6285C1.12782 11.3814 1.08921 12.1386 1.0587 12.8962C0.99924 14.4121 0.97723 15.9315 0.983022 17.4509C0.997309 20.1477 1.11508 22.8606 1.34521 25.5241C1.49155 27.2354 1.69465 28.944 1.95915 30.638C2.22288 32.3307 2.53873 34.015 3.01444 35.6333C3.34187 36.6183 3.06695 36.6082 2.51247 35.8248C1.97035 35.0386 1.31277 33.4181 0.981864 31.4287C0.41503 27.9049 0.16173 24.3676 0.0512981 20.8242C-0.0448475 17.2791 -0.0266996 13.7306 0.287994 10.1551C0.344368 9.61836 0.395337 9.08203 0.485691 8.5318C0.530868 8.25534 0.578361 7.98119 0.666784 7.6773C0.711961 7.53058 0.798454 7.30392 0.906569 7.18422L1.06681 6.97301L1.24597 6.80543C1.73404 6.37606 2.26728 6.13704 2.79627 5.9185C3.32836 5.71385 3.86546 5.55052 4.40565 5.41113C6.56642 4.86591 8.75962 4.59833 10.9335 4.39059C15.7157 3.96508 20.5068 3.88863 25.2885 3.88477C26.762 3.88708 28.2382 3.91025 29.7151 3.9867C31.192 4.06818 32.6713 4.18594 34.1436 4.47708C34.7004 4.59176 35.2572 4.73347 35.8047 4.95318C36.0769 5.06824 36.3503 5.19374 36.6063 5.38294C36.8608 5.57755 37.0994 5.80691 37.2535 6.05287C37.6017 6.53784 37.8547 7.06182 38.0651 7.59351C38.2848 8.12328 38.4478 8.66656 38.6065 9.20946C39.1972 11.3907 39.503 13.6098 39.7448 15.8138C40.1089 19.243 40.312 22.6154 40.3973 26.0199C40.4135 26.7693 40.4363 27.503 40.4371 28.2594C40.4348 31.0627 40.3209 31.9546 40.0401 32.5458C39.9753 32.6802 39.9089 32.8582 39.8459 32.935C39.6281 33.1937 39.5185 32.0523 39.4922 30.0128C39.4498 26.9871 39.3644 23.88 39.1756 20.7407C38.9795 17.6062 38.7134 14.4195 38.101 11.3266C37.8655 10.1848 37.5898 9.04419 37.1693 8.00126C36.9646 7.47922 36.7179 6.97841 36.4152 6.57568C36.3453 6.461 36.2603 6.39614 36.1854 6.31273C36.1488 6.28261 36.1132 6.25095 36.0785 6.21813L35.9437 6.12585C35.7487 6.00537 35.5163 5.89649 35.2653 5.80459C34.2448 5.44317 33.069 5.27482 31.9102 5.14933C30.7438 5.02847 29.561 4.96631 28.3756 4.93156L28.3706 4.90684Z" fill="#231F20"/>
</g>
<path fill-rule="evenodd" clip-rule="evenodd" d="M27.8061 24.9138C27.4745 24.7775 27.1362 24.6473 26.8038 24.584C26.5775 24.5338 26.6188 24.5388 26.5601 24.5253C26.5099 24.5118 26.4949 24.5674 26.481 24.6053C26.4756 24.6304 26.4759 24.6141 26.4694 24.6871C26.4628 24.7477 26.4605 24.8126 26.4586 24.8779L26.4489 25.276C26.4223 26.2343 26.4756 27.2305 26.5628 28.214C26.6041 28.6511 26.6763 29.087 26.759 29.5137L26.9354 30.3323C26.9868 30.6057 27.02 30.8825 27.0482 31.1563C27.0644 31.325 26.9177 31.3536 26.7207 31.252C26.5269 31.1501 26.2744 30.9169 26.1694 30.5991C25.8836 29.4577 25.7133 28.3074 25.6747 27.1278C25.6643 26.4212 25.5566 25.6992 25.5786 24.9508C25.5848 24.8462 25.5875 24.7443 25.5998 24.6358C25.6064 24.5902 25.6075 24.5172 25.6249 24.4342C25.6411 24.3566 25.6508 24.2763 25.6716 24.2018C25.7153 24.0531 25.7686 23.9106 25.8682 23.8064C25.9608 23.6867 26.1072 23.6438 26.2609 23.6612L26.7092 23.6635C26.8389 23.6751 26.9231 23.7064 27.032 23.7268C27.2416 23.7658 27.4339 23.8388 27.6312 23.9006C28.1046 24.0751 28.5618 24.2713 28.9962 24.4991C29.6599 24.8362 30.2831 25.2358 30.9079 25.6073C31.3937 25.8957 31.896 26.1397 32.386 26.3953C32.4937 26.4509 32.6042 26.4957 32.7096 26.5556C32.9061 26.6602 33.0208 26.7487 33.0764 26.8529C33.1343 26.9498 33.1428 27.0541 33.1227 27.1935C33.1135 27.2572 33.1115 27.3236 33.0961 27.3823C33.0501 27.5765 32.7887 27.6437 32.442 27.5391C31.4744 27.1475 30.6299 26.5571 29.7588 26.0177C29.1159 25.6169 28.4691 25.2211 27.7988 24.935L27.8061 24.9138Z" fill="#231F20"/>
<path fill-rule="evenodd" clip-rule="evenodd" d="M31.3744 29.5195C31.8359 29.9728 32.3108 30.4169 32.8023 30.8428C32.9811 30.9991 33.1796 31.1293 33.3595 31.2837C33.9939 31.8293 34.6457 32.3564 35.3203 32.8499C35.6191 33.0684 35.9389 33.2588 36.2593 33.4294C36.6713 33.6352 37.0988 33.8565 37.4637 34.0032C37.5621 34.0434 37.5838 34.2071 37.4254 34.3604C37.2629 34.5168 36.9316 34.6075 36.6404 34.521C36.1192 34.3735 35.6713 34.131 35.2392 33.87C34.8056 33.6113 34.4017 33.312 34.0268 32.9746C33.5758 32.5757 33.0495 32.2459 32.5749 31.8621C32.0536 31.4409 31.549 30.9995 31.054 30.5478C30.7485 30.2709 30.452 29.9832 30.1547 29.6979C29.7052 29.2631 29.277 28.8036 28.8434 28.3546C28.5082 28.0032 28.1457 27.6842 27.8229 27.2962C27.7499 27.2136 27.6761 27.129 27.6124 27.0329C27.5495 26.9479 27.5101 26.8653 27.4908 26.788C27.4703 26.7124 27.4533 26.6525 27.4634 26.5923C27.4973 26.4618 27.5537 26.3788 27.636 26.3027C27.6742 26.2683 27.7074 26.2301 27.7437 26.2069C27.8055 26.1675 27.8792 26.1768 27.9758 26.2073C28.0684 26.2405 28.2051 26.2776 28.2901 26.3718C28.8133 26.9143 29.3867 27.5371 29.9964 28.1472C30.447 28.6025 30.9103 29.0596 31.3899 29.5006L31.3744 29.5195Z" fill="#231F20"/>
<path fill-rule="evenodd" clip-rule="evenodd" d="M22.0157 25.2469C22.1133 25.2399 22.1365 25.3955 22.0531 25.5712C22.0272 25.6284 21.8975 25.7612 21.8674 25.7728C21.8091 25.7956 21.7531 25.8176 21.7125 25.8334C21.6875 25.838 21.3218 25.7689 21.1724 25.7681C21.0395 25.7612 20.9129 25.7303 20.7905 25.6925C20.5376 25.6206 20.2874 25.5357 20.0306 25.4674C19.9738 25.4511 19.9209 25.4233 19.87 25.3886C19.6962 25.2654 19.4997 25.209 19.2981 25.1785C19.2649 25.1727 19.2325 25.1596 19.1923 25.1866C19.1255 25.2276 18.5961 25.116 18.534 25.0812C18.3764 24.9866 18.2162 24.904 18.054 24.819C18.0304 24.8063 18.0034 24.8152 17.9864 24.7712C17.9467 24.6685 17.8914 24.6785 17.8393 24.6631C17.7667 24.6322 17.6957 24.6214 17.6246 24.5634C17.5895 24.5372 17.5543 24.48 17.5173 24.4379C17.4837 24.3993 17.5018 24.2955 17.5146 24.2816C17.5505 24.2468 17.5219 24.1916 17.5184 24.146C17.5173 24.1306 17.5161 24.1101 17.5181 24.097C17.5196 24.0904 17.6405 23.99 17.7779 23.9171C17.9119 23.8468 18.0555 23.797 18.0826 23.7985C18.0891 23.7981 18.2718 23.7943 18.4656 23.7904C18.6556 23.7923 18.8521 23.8136 18.8931 23.8109C18.9355 23.8101 18.9714 23.8425 19.0089 23.8653C19.0278 23.8719 19.5861 23.9271 19.607 23.9371C19.7147 23.9788 19.8356 23.975 19.9217 24.0889C19.9387 24.1113 19.9622 24.1136 19.9846 24.1186C20.1765 24.1615 20.3542 24.2518 20.5329 24.3356C20.6244 24.3765 20.7225 24.4001 20.8171 24.4345C20.8337 24.4406 20.8469 24.4588 20.8619 24.4704C20.8808 24.4847 20.8982 24.5032 20.9202 24.5101C21.1476 24.582 21.345 24.7295 21.5789 24.8017C21.6326 24.8183 21.833 25.0295 21.8967 25.0538C21.9326 25.0635 21.977 25.2484 22.0157 25.2469Z" fill="#231F20"/>
<path fill-rule="evenodd" clip-rule="evenodd" d="M24.5771 21.9211C24.6651 21.9272 24.6002 22.0018 24.5636 22.2161C24.5504 22.2821 24.4771 22.4593 24.4392 22.4698C24.369 22.4914 24.284 22.5033 24.2095 22.4979C24.1651 22.4991 23.7446 22.2736 23.6233 22.2029C23.4909 22.1342 23.3878 22.0415 23.2905 21.9442C23.0924 21.7465 22.8955 21.5527 22.7063 21.3508C22.6646 21.306 22.6325 21.2535 22.6086 21.1944C22.5237 20.9951 22.4032 20.8256 22.2588 20.6723C22.2352 20.6465 22.219 20.614 22.1688 20.609C22.085 20.6032 21.7452 20.1395 21.729 20.0572C21.7066 19.9588 21.6776 19.8665 21.6498 19.7727C21.629 19.673 21.6085 19.5765 21.5869 19.4753C21.5811 19.4475 21.5568 19.4255 21.5823 19.3815C21.6421 19.2792 21.6012 19.2352 21.5827 19.1773C21.5576 19.0923 21.5413 18.9989 21.5595 18.8954C21.5742 18.8309 21.6136 18.7672 21.6502 18.7162C21.6831 18.671 21.7645 18.6846 21.7823 18.6923C21.8236 18.7189 21.863 18.6842 21.8985 18.6772C21.9113 18.6745 21.9275 18.671 21.9394 18.6707C21.9603 18.6811 22.0746 18.6992 22.2039 18.7514C22.3074 18.7961 22.4348 18.861 22.4422 18.8757C22.4422 18.8757 22.5472 18.9884 22.6642 19.1C22.775 19.2182 22.8858 19.346 22.9148 19.368C22.9441 19.3916 22.9449 19.4352 22.9538 19.4734C22.9557 19.4923 23.3141 19.8391 23.3241 19.8557C23.3758 19.9445 23.4697 20.0016 23.4589 20.1379C23.4573 20.165 23.4739 20.1781 23.4878 20.1935C23.604 20.3256 23.6766 20.4932 23.7674 20.6465C23.8133 20.7252 23.8766 20.7909 23.9311 20.8615C23.9411 20.8747 23.9411 20.8955 23.9469 20.9121C23.9539 20.9326 23.9577 20.9561 23.9709 20.9716C24.1091 21.1322 24.2106 21.3284 24.3744 21.4566C24.4103 21.4902 24.4944 21.7176 24.5412 21.7446C24.5663 21.7647 24.5423 21.9191 24.5771 21.9211Z" fill="#231F20"/>
<path fill-rule="evenodd" clip-rule="evenodd" d="M28.5232 21.016C28.5804 21.0496 28.4862 21.0755 28.3147 21.1913C28.2607 21.2264 28.0881 21.2998 28.0556 21.2863C27.9931 21.2623 27.9298 21.228 27.8799 21.1828C27.8591 21.1635 27.8174 21.0565 27.7734 20.9214C27.7382 20.7986 27.7054 20.6557 27.6923 20.5905C27.6587 20.4538 27.6687 20.3302 27.6826 20.2051C27.7205 19.9588 27.7668 19.7186 27.8294 19.4877C27.8433 19.436 27.8668 19.3873 27.9008 19.3429C28.0182 19.1912 28.0784 19.024 28.1232 18.8487C28.1302 18.8193 28.1464 18.7927 28.1255 18.7529C28.0865 18.6869 28.2723 18.2282 28.3282 18.183C28.4553 18.0675 28.5634 17.9436 28.687 17.8297C28.7039 17.8135 28.7036 17.7849 28.751 17.788C28.8615 17.7957 28.87 17.7451 28.9028 17.7073C28.9526 17.6586 29.0117 17.6134 29.0812 17.5787C29.1159 17.5609 29.1796 17.5648 29.2325 17.5633C29.2804 17.5617 29.3777 17.6517 29.3847 17.6683C29.4036 17.7165 29.4681 17.7339 29.514 17.764C29.5299 17.7741 29.5503 17.7876 29.5619 17.7976C29.5747 17.8084 29.5878 17.9235 29.6082 18.0382C29.6364 18.1602 29.6403 18.2668 29.6299 18.2811C29.6299 18.2811 29.5832 18.4011 29.5391 18.5232C29.4982 18.649 29.4565 18.7796 29.4538 18.8093C29.4499 18.8398 29.4167 18.8568 29.3916 18.8772C29.377 18.8865 29.2901 19.2788 29.2843 19.2927C29.2437 19.3645 29.2464 19.4526 29.1383 19.4997C29.1175 19.5093 29.1159 19.5263 29.1117 19.5425C29.075 19.6792 28.9993 19.8012 28.9372 19.9298C28.9051 19.9951 28.8985 20.0665 28.8773 20.1345C28.8738 20.1468 28.8584 20.1561 28.8495 20.1673C28.8379 20.1808 28.8233 20.1939 28.8209 20.2094C28.7927 20.3719 28.702 20.5264 28.7175 20.6816C28.7148 20.7191 28.6101 20.87 28.6209 20.9098C28.6279 20.9249 28.5005 20.9979 28.5232 21.016Z" fill="#231F20"/>
<path fill-rule="evenodd" clip-rule="evenodd" d="M6.99123 10.6658C7.24067 10.7264 7.46655 10.8928 7.56926 11.1674C8.01717 12.3671 5.99078 12.4377 6.00236 11.3678C6.00893 10.794 6.53831 10.5557 6.99123 10.6658Z" fill="#231F20"/>
<path fill-rule="evenodd" clip-rule="evenodd" d="M10.0719 10.3374C10.3214 10.398 10.5473 10.5645 10.65 10.839C11.0979 12.0391 9.07149 12.1097 9.08307 11.0394C9.08964 10.4656 9.61902 10.2274 10.0719 10.3374Z" fill="#231F20"/>
<path fill-rule="evenodd" clip-rule="evenodd" d="M13.1519 10.0061C13.4013 10.0667 13.6276 10.2332 13.7299 10.5077C14.1778 11.7074 12.1514 11.7781 12.163 10.7081C12.1696 10.1343 12.6994 9.89568 13.1519 10.0061Z" fill="#231F20"/>
<path fill-rule="evenodd" clip-rule="evenodd" d="M22.73 37.0754C21.1345 37.1271 19.5387 37.1634 17.9432 37.1893C17.3609 37.1986 16.7794 37.2306 16.1975 37.2329C14.1453 37.243 12.0934 37.209 10.0434 37.1657C9.13411 37.1472 8.21899 37.146 7.31738 37.1484C6.73935 37.1545 6.15939 37.1599 5.5802 37.1657C5.01028 37.1754 4.41178 37.1542 3.89707 37.1823C3.83066 37.1912 3.77158 37.1831 3.75729 37.1654C3.73104 37.1464 3.69976 37.119 3.6793 37.0843C3.63103 37.0213 3.65536 36.8777 3.81058 36.7437C4.10635 36.4804 4.69828 36.2645 5.37053 36.2607C7.75216 36.2634 10.0987 36.3421 12.4822 36.4344C13.9059 36.4923 15.3878 36.4325 16.8439 36.4097C18.4456 36.3858 20.048 36.3514 21.65 36.2989C22.6358 36.2672 23.6224 36.2305 24.607 36.1823C26.0994 36.112 27.5987 36.0332 29.0772 35.9162C30.2263 35.8209 31.3484 35.6757 32.4805 35.5432C32.7296 35.5127 32.974 35.4826 33.225 35.4517C34.1578 35.3552 34.4598 35.3841 34.6807 35.5853C34.7309 35.6313 34.7957 35.6757 34.827 35.7236C34.932 35.885 34.5633 36.0583 33.8821 36.1688C31.8615 36.4966 29.7151 36.6912 27.557 36.8387C25.9546 36.9468 24.3421 37.0256 22.7331 37.0958L22.73 37.0754Z" fill="#231F20"/>
<path fill-rule="evenodd" clip-rule="evenodd" d="M22.0929 37.5782C20.7152 37.6253 19.3371 37.6643 17.9594 37.6925L16.4516 37.7303C14.6796 37.7481 12.9073 37.7388 11.1365 37.7137C10.3504 37.7095 9.56076 37.7056 8.78078 37.7013C7.77956 37.7029 6.77292 37.7164 5.77942 37.6747C5.15467 37.6538 5.93773 37.1507 7.10036 37.16C9.14799 37.177 11.184 37.2195 13.244 37.2685C14.475 37.3005 15.7566 37.2554 17.0161 37.2318C18.4007 37.2067 19.7862 37.1723 21.1712 37.1222C22.0238 37.0971 22.876 37.0554 23.7274 37.0167C25.0174 36.9534 26.3136 36.8878 27.5921 36.7901C28.5856 36.7109 29.5579 36.6129 30.5379 36.5063C30.7533 36.4831 30.9649 36.4599 31.1823 36.4364C31.9893 36.3619 32.2492 36.3738 32.4345 36.4912C32.4766 36.5179 32.5311 36.5433 32.5569 36.5715C32.6434 36.6669 32.3206 36.7777 31.7306 36.8565C29.9807 37.094 28.1257 37.2469 26.2615 37.3689C24.8773 37.4616 23.4845 37.5257 22.0952 37.5901L22.0929 37.5782Z" fill="#231F20"/>
<path fill-rule="evenodd" clip-rule="evenodd" d="M36.1597 0.864427C36.1408 0.984898 36.1026 1.10537 36.0794 1.2243C36.0705 1.26754 36.0852 1.31002 36.0732 1.35365C36.0319 1.50656 35.979 1.65869 35.9439 1.80928C35.9284 1.87608 35.935 1.94288 35.9462 2.00929C35.9605 2.09385 36.011 2.17919 35.9292 2.26414C35.879 2.31704 35.1701 2.24985 35.1542 2.15448C35.1311 1.98458 35.1504 1.81584 35.2484 1.64286C35.3075 1.53938 35.2666 1.43358 35.2759 1.32894C35.2901 1.21503 35.3044 1.09765 35.3187 0.982195C35.3295 0.911148 35.3423 0.839328 35.3473 0.768281C35.3554 0.660551 35.3739 0.550891 35.3546 0.445865C35.3373 0.364392 35.2847 0.287553 35.2496 0.209169C35.2419 0.191793 35.2261 0.175962 35.2291 0.157428C35.2272 0.124221 35.2504 0.0998953 35.3033 0.0786583C35.3496 0.0585797 35.4075 0.0435208 35.4863 0.0276895L35.589 0.00722482C35.6948 -0.010537 35.8118 0.00529419 35.9219 0.0454514C36.125 0.178279 36.1767 0.338522 36.1867 0.500309C36.1972 0.62078 36.1844 0.742797 36.1806 0.863268L36.1597 0.864427Z" fill="#231F20"/>
<path fill-rule="evenodd" clip-rule="evenodd" d="M41.693 3.80615C41.4787 3.8853 41.2636 3.96407 41.0505 4.04245C40.9717 4.07064 40.9026 4.11852 40.8223 4.14401C40.5381 4.23243 40.2493 4.32201 39.967 4.40966C39.8423 4.45136 39.7222 4.50619 39.606 4.56411C39.4562 4.63786 39.3114 4.73208 39.1303 4.72976C39.0206 4.73131 38.9561 4.18802 39.1098 4.09651C39.3928 3.94168 39.6809 3.80074 40.0095 3.71849C40.2072 3.67139 40.3713 3.53701 40.5528 3.44396C40.7516 3.3397 40.9621 3.25321 41.1694 3.15784C41.2976 3.09953 41.4262 3.04123 41.5532 2.98331C41.7455 2.8918 41.944 2.80801 42.1293 2.70298C42.2757 2.62653 42.3892 2.48868 42.5351 2.40837C42.566 2.38906 42.5965 2.36975 42.6321 2.35817C42.7637 2.31801 42.8278 2.35469 42.9247 2.50413C42.9471 2.5381 42.9707 2.57054 42.9896 2.6049C43.0537 2.71997 43.051 2.84778 42.9935 2.94894C42.834 3.27213 42.5823 3.40959 42.3193 3.55246C42.1204 3.64899 41.91 3.73085 41.703 3.82391L41.693 3.80615Z" fill="#231F20"/>
<path fill-rule="evenodd" clip-rule="evenodd" d="M27.2594 7.01553C25.2341 6.94873 23.1888 6.97074 21.1497 6.98928C19.1106 7.01553 17.0726 7.07538 15.04 7.19315C13.5565 7.27964 12.0784 7.41942 10.61 7.5897C9.31645 7.74184 8.02525 7.93142 6.77844 8.24033C6.15909 8.39671 5.54129 8.58205 4.9984 8.85388C4.72656 8.98748 4.48215 9.15081 4.29758 9.33229L4.19023 9.474C4.15239 9.52227 4.15124 9.56165 4.12459 9.61339C4.08637 9.74815 4.05084 9.89025 4.02459 10.0478C3.81569 11.2965 3.75314 12.6217 3.69522 13.9226C3.64425 15.23 3.62533 16.5405 3.63074 17.851C3.64348 20.1763 3.74503 22.5162 3.94273 24.8133C4.0686 26.2894 4.24352 27.7633 4.47133 29.2244C4.69876 30.6847 4.97137 32.1377 5.38337 33.5336C5.66717 34.3838 5.43627 34.3715 4.96519 33.6938C4.50493 33.0138 3.94466 31.6157 3.6597 29.9013C3.17125 26.864 2.9527 23.814 2.85655 20.7589C2.77315 17.7024 2.78782 14.6427 3.05695 11.5602C3.10522 11.0977 3.14924 10.6355 3.22646 10.1613C3.26507 9.92345 3.30639 9.68714 3.38207 9.42651C3.42107 9.30063 3.49405 9.10757 3.58672 9.00486L3.72379 8.82454L3.87747 8.6809C4.29565 8.31253 4.75475 8.10634 5.21 7.9183C5.66794 7.74184 6.13091 7.60167 6.5958 7.4812C8.45848 7.0109 10.3493 6.78077 12.2236 6.60122C16.3463 6.23363 20.4778 6.16683 24.6013 6.16296C25.872 6.16489 27.1447 6.18459 28.4181 6.25023C29.6912 6.32012 30.967 6.42128 32.2354 6.67227C32.7154 6.77073 33.1953 6.89274 33.6664 7.08195C33.9008 7.18118 34.1359 7.28891 34.3556 7.45147C34.5742 7.61866 34.7792 7.8152 34.912 8.02718C35.2117 8.4442 35.4298 8.89558 35.6109 9.35353C35.8001 9.80993 35.9407 10.2783 36.0774 10.7459C36.5871 12.626 36.8508 14.5396 37.0589 16.4397C37.3724 19.3967 37.5458 22.305 37.618 25.2403C37.6319 25.8867 37.6508 26.5192 37.6512 27.1714C37.6493 29.5885 37.5528 30.3577 37.3184 30.8674C37.2639 30.9836 37.2087 31.1373 37.1558 31.2037C36.9743 31.4269 36.8844 30.4426 36.8635 28.6838C36.8295 26.074 36.7577 23.3946 36.5955 20.6867C36.4268 17.9831 36.1978 15.2346 35.6692 12.5657C35.4661 11.5803 35.2283 10.5957 34.8649 9.69448C34.6877 9.24348 34.4749 8.81025 34.212 8.4608C34.1514 8.36157 34.0768 8.30481 34.012 8.23183L33.9178 8.14881L33.8004 8.06811C33.6305 7.96347 33.4285 7.86849 33.2115 7.78894C32.3281 7.47657 31.3137 7.33177 30.3136 7.22365C29.3066 7.1194 28.2861 7.06611 27.264 7.036L27.2594 7.01553Z" fill="#231F20"/>
<path fill-rule="evenodd" clip-rule="evenodd" d="M22.2655 34.9375L18.2093 34.956L16.73 34.9796C14.9913 34.9831 13.2518 34.9383 11.513 34.9163C10.7412 34.8981 9.96584 34.9066 9.19937 34.8977C8.21514 34.9008 7.22356 34.8919 6.24087 34.7495C5.63195 34.6715 6.44088 34.3278 7.55988 34.2927C9.555 34.3008 11.5571 34.2942 13.5781 34.339C14.787 34.3637 16.045 34.3081 17.2814 34.2934L21.3631 34.2398C22.2007 34.2251 23.0382 34.2104 23.8749 34.1957C25.1429 34.1672 26.4172 34.1479 27.6748 34.095C28.6528 34.0525 29.61 33.9726 30.5765 33.9096C30.7893 33.8961 30.9974 33.8749 31.2125 33.8718C32.0094 33.8629 32.2658 33.9394 32.4407 34.0911C32.4805 34.127 32.5326 34.1618 32.5562 34.1961C32.6353 34.3104 32.3133 34.4278 31.7341 34.527C30.0128 34.7664 28.1891 34.8205 26.3585 34.8769C24.9981 34.9031 23.6316 34.9294 22.2675 34.9553L22.2655 34.9375Z" fill="#231F20"/>
<path fill-rule="evenodd" clip-rule="evenodd" d="M2.70229 24.174C2.62352 22.9616 2.56637 21.7491 2.5181 20.5367C2.49957 20.0942 2.45362 19.6532 2.44358 19.2111C2.41115 17.6504 2.42003 16.0885 2.46945 14.5262C2.49532 13.8327 2.49301 13.1358 2.51154 12.4435C2.54398 11.5542 2.50691 10.6526 2.86021 9.74482C2.9803 9.45676 3.21082 9.60929 3.40156 9.89347C3.5842 10.1703 3.77726 10.5928 3.72977 11.0658C3.58806 12.7786 3.59656 14.5664 3.47338 16.3611C3.4062 17.438 3.50041 18.5566 3.53902 19.6575C3.58034 20.8684 3.63015 22.0812 3.70274 23.2921C3.7456 24.0373 3.79696 24.7829 3.86144 25.5258C3.96183 26.6514 4.04601 27.7854 4.21397 28.8928C4.34487 29.7531 4.53562 30.5876 4.74915 31.4085C4.79471 31.5907 4.85224 31.7625 4.90321 31.9405C4.99472 32.2695 5.05303 32.485 5.06809 32.6336C5.07542 32.7958 5.03372 32.8993 4.98237 33.0128C4.95959 33.0646 4.94839 33.1271 4.92985 33.1665C4.89742 33.2325 4.82637 33.2221 4.67501 33.1345C4.5889 33.0916 4.52365 33.019 4.45492 32.931C4.37846 32.8425 4.31939 32.7263 4.26533 32.6012C3.93596 31.8456 3.72939 31.0621 3.53902 30.2644C3.35523 29.4662 3.20696 28.6527 3.08185 27.8364C2.88415 26.6251 2.77488 25.3996 2.67603 24.1779L2.70229 24.174Z" fill="#231F20"/>
</svg>
