<svg width="80" height="81" viewBox="0 0 80 81" fill="none" xmlns="http://www.w3.org/2000/svg">
<path d="M39.9998 7.1665C21.6665 7.1665 6.6665 22.1665 6.6665 40.4998C6.6665 58.8332 21.6665 73.8332 39.9998 73.8332C58.3332 73.8332 73.3332 58.8332 73.3332 40.4998C73.3332 22.1665 58.3332 7.1665 39.9998 7.1665ZM39.9998 67.1665C25.2998 67.1665 13.3332 55.1998 13.3332 40.4998C13.3332 25.7998 25.2998 13.8332 39.9998 13.8332C54.6998 13.8332 66.6665 25.7998 66.6665 40.4998C66.6665 55.1998 54.6998 67.1665 39.9998 67.1665ZM55.2998 25.7665L33.3332 47.7332L24.6998 39.1332L19.9998 43.8332L33.3332 57.1665L59.9998 30.4998L55.2998 25.7665Z" fill="#34D399"/>
</svg>
