<svg width="40" height="40" viewBox="0 0 40 40" fill="none" xmlns="http://www.w3.org/2000/svg">
<g id="fluent:speaker-2-16-regular">
<path id="Vector" d="M21.735 5.10002C21.9614 5.19533 22.1547 5.35523 22.2908 5.55976C22.4268 5.76429 22.4996 6.00437 22.5 6.25002V33.75C22.5 33.9962 22.4273 34.2368 22.291 34.4418C22.1547 34.6468 21.961 34.807 21.734 34.9023C21.5071 34.9976 21.2571 35.0238 21.0153 34.9776C20.7735 34.9314 20.5508 34.8148 20.375 34.6425L13.0575 27.455H8.75C7.75544 27.455 6.80161 27.0599 6.09835 26.3567C5.39509 25.6534 5 24.6996 5 23.705V16.23C5 15.2355 5.39509 14.2816 6.09835 13.5784C6.80161 12.8751 7.75544 12.48 8.75 12.48H13.06L20.3775 5.35502C20.5534 5.18341 20.776 5.06745 21.0174 5.02166C21.2589 4.97586 21.5085 5.00474 21.735 5.10002ZM20 9.21002L14.4425 14.6275C14.2085 14.8557 13.8944 14.9831 13.5675 14.9825H8.75C8.41848 14.9825 8.10054 15.1142 7.86612 15.3486C7.6317 15.5831 7.5 15.901 7.5 16.2325V23.705C7.5 24.0365 7.6317 24.3545 7.86612 24.5889C8.10054 24.8233 8.41848 24.955 8.75 24.955H13.57C13.8972 24.9551 14.2114 25.0834 14.445 25.3125L20 30.77V9.21002ZM25.2775 12.97C25.3797 12.8414 25.5063 12.7342 25.6499 12.6545C25.7936 12.5749 25.9516 12.5243 26.1148 12.5057C26.278 12.4871 26.4433 12.5009 26.6012 12.5463C26.7591 12.5916 26.9065 12.6677 27.035 12.77L27.04 12.7725L27.045 12.7775L27.0575 12.7875L27.095 12.82L27.21 12.92C27.3 13.005 27.4225 13.12 27.565 13.275C27.8475 13.5825 28.215 14.03 28.5775 14.625C29.305 15.825 30.01 17.6075 30.01 19.995C30.01 22.38 29.305 24.165 28.5775 25.365C28.2858 25.8484 27.9467 26.3015 27.565 26.7175C27.406 26.8902 27.2374 27.0538 27.06 27.2075L27.04 27.225H27.0375C27.0375 27.225 25.92 27.8325 25.28 27.03C25.0742 26.7725 24.9784 26.4442 25.0136 26.1164C25.0487 25.7887 25.2118 25.4881 25.4675 25.28L25.4725 25.275L25.5175 25.235C25.5625 25.1925 25.6375 25.1225 25.73 25.0225C25.9977 24.7285 26.2356 24.4086 26.44 24.0675C26.965 23.205 27.51 21.8625 27.51 19.9925C27.51 18.125 26.965 16.785 26.44 15.925C26.183 15.5007 25.8739 15.1102 25.52 14.7625C25.3833 14.6631 25.2682 14.5369 25.1816 14.3917C25.0951 14.2465 25.0389 14.0852 25.0165 13.9176C24.994 13.7501 25.0058 13.5797 25.0511 13.4168C25.0964 13.2539 25.1743 13.1019 25.28 12.97H25.2775ZM29.5325 7.77002C29.4045 7.66411 29.2567 7.58477 29.0977 7.53664C28.9388 7.4885 28.7718 7.47254 28.6066 7.48968C28.4413 7.50682 28.2812 7.55672 28.1355 7.63647C27.9897 7.71621 27.8614 7.8242 27.7579 7.95412C27.6544 8.08405 27.5778 8.23329 27.5326 8.39315C27.4875 8.553 27.4746 8.72026 27.4948 8.88513C27.515 9.05001 27.5679 9.2092 27.6504 9.35341C27.7328 9.49762 27.8432 9.62395 27.975 9.72502L28.0025 9.75002L28.1325 9.86252C28.25 9.96752 28.4225 10.13 28.635 10.35C29.06 10.7925 29.635 11.4575 30.21 12.335C31.36 14.0875 32.51 16.6675 32.51 20.0075C32.5165 22.7327 31.7162 25.3989 30.21 27.67C29.635 28.545 29.06 29.205 28.635 29.645C28.434 29.8542 28.2238 30.0544 28.005 30.245L27.9775 30.27H27.975C27.7227 30.4788 27.5624 30.7783 27.5286 31.104C27.4948 31.4298 27.5902 31.7558 27.7943 32.0119C27.9984 32.268 28.2948 32.4339 28.6198 32.4737C28.9449 32.5136 29.2726 32.4243 29.5325 32.225L29.615 32.1575L29.8025 31.995C29.96 31.8525 30.1775 31.65 30.435 31.3825C31.128 30.6621 31.7523 29.8787 32.3 29.0425C34.0729 26.3634 35.0148 23.2202 35.0075 20.0075C35.0138 16.7919 34.0721 13.6458 32.3 10.9625C31.7525 10.1253 31.129 9.34035 30.4375 8.61752C30.1762 8.34596 29.9026 8.08652 29.6175 7.84002L29.56 7.79252L29.5425 7.77752L29.5375 7.77252L29.5325 7.77002Z" fill="#475569"/>
</g>
</svg>
