<svg width="150" height="176" viewBox="0 0 150 176" fill="none" xmlns="http://www.w3.org/2000/svg">
<path d="M141.167 161.881H20.0039C16.1379 161.881 13.0039 158.747 13.0039 154.881V8C13.0039 4.13401 16.1379 1 20.0039 1H103.134C104.915 1 106.63 1.67935 107.928 2.89961L145.961 38.6507C147.369 39.9737 148.167 41.8195 148.167 43.7511V154.881C148.167 158.747 145.033 161.881 141.167 161.881Z" stroke="black" stroke-width="2"/>
<path d="M106.449 38.2179L106.156 2.37207L144.314 37.9084L106.449 38.2179Z" fill="black" stroke="black"/>
<line x1="101.16" y1="64.4375" x2="29.1497" y2="64.4375" stroke="black" stroke-width="2"/>
<line x1="101.16" y1="85.0117" x2="29.1497" y2="85.0117" stroke="black" stroke-width="2"/>
<line x1="78.8711" y1="105.587" x2="29.1496" y2="105.587" stroke="black" stroke-width="2"/>
<path fill-rule="evenodd" clip-rule="evenodd" d="M130.305 161.347H20.0018C15.5835 161.347 12.0017 157.766 12.0017 153.347V13.8975H8C3.58172 13.8975 0 17.4792 0 21.8974V167.064C0 171.482 3.58173 175.064 8.00001 175.064H122.305C126.723 175.064 130.305 171.482 130.305 167.064V161.347Z" fill="black"/>
</svg>
