<svg width="143" height="169" viewBox="0 0 143 169" fill="none" xmlns="http://www.w3.org/2000/svg">
<path d="M134.271 154.351H19.4492C15.5832 154.351 12.4492 151.217 12.4492 147.351V7.99999C12.4492 4.134 15.5832 1 19.4492 1H98.2198C100.001 1 101.716 1.67935 103.014 2.89961L139.066 36.7882C140.473 38.1112 141.271 39.957 141.271 41.8886V147.351C141.271 151.217 138.137 154.351 134.271 154.351Z" stroke="white" stroke-width="2"/>
<path d="M101.529 37.4837L101.25 3.29492L137.644 37.1885L101.529 37.4837Z" fill="white" stroke="white"/>
<path d="M65 62.1406L65 133" stroke="white" stroke-width="2"/>
<path fill-rule="evenodd" clip-rule="evenodd" d="M88 62V62.1406L43.2461 62.1406L42.5167 62.1406H41.2461L41.2461 134.5H41.5165V134.822H113.469V132.822H113.198L113.198 62.1406L111.198 62.1406L90 62.1406V62H88ZM111.198 132.822V108.293L90 108.293L90 132.822H111.198ZM88 132.822L88 108.293L43.2461 108.293L43.2461 132.822H88ZM88 106.293L43.2461 106.293L43.2461 87.0345L88 87.0345V106.293ZM111.198 106.293L90 106.293V87.0345L111.198 87.0345V106.293ZM111.198 85.0345V64.1406L90 64.1406V85.0345L111.198 85.0345ZM88 85.0345V64.1406L43.2461 64.1406L43.2461 85.0345L88 85.0345Z" fill="white"/>
<path fill-rule="evenodd" clip-rule="evenodd" d="M124.281 154.981H19.447C15.0287 154.981 11.4469 151.399 11.4469 146.981V14.3467H8C3.58172 14.3467 0 17.9284 0 22.3467V160.063C0 164.481 3.58172 168.063 8 168.063H116.281C120.699 168.063 124.281 164.481 124.281 160.063V154.981Z" fill="white"/>
</svg>
