<svg width="16" height="17" viewBox="0 0 16 17" fill="none" xmlns="http://www.w3.org/2000/svg">
<g id="iconoir:page" clip-path="url(#clip0_1077_2817)">
<g id="Group">
<path id="Vector" d="M5.33341 7.52388H10.6667M5.33341 12.8572H10.6667M5.33341 10.1906H8.00008M2.66675 15.1239V2.59055C2.66675 2.48447 2.70889 2.38272 2.78391 2.30771C2.85892 2.23269 2.96066 2.19055 3.06675 2.19055H10.8347C10.9408 2.19065 11.0425 2.23285 11.1174 2.30789L13.2161 4.40655C13.2534 4.44382 13.283 4.4881 13.3031 4.53684C13.3232 4.58558 13.3335 4.63782 13.3334 4.69055V15.1239C13.3334 15.1764 13.3231 15.2284 13.303 15.277C13.2829 15.3255 13.2534 15.3696 13.2163 15.4067C13.1791 15.4439 13.135 15.4733 13.0865 15.4934C13.038 15.5135 12.9859 15.5239 12.9334 15.5239H3.06675C3.01422 15.5239 2.9622 15.5135 2.91367 15.4934C2.86514 15.4733 2.82105 15.4439 2.78391 15.4067C2.74676 15.3696 2.7173 15.3255 2.6972 15.277C2.67709 15.2284 2.66675 15.1764 2.66675 15.1239Z" stroke="#475569" stroke-linecap="round" stroke-linejoin="round"/>
<path id="Vector_2" d="M10.6667 2.19055V4.45722C10.6667 4.56331 10.7089 4.66505 10.7839 4.74006C10.8589 4.81508 10.9607 4.85722 11.0667 4.85722H13.3334" stroke="#475569" stroke-linecap="round" stroke-linejoin="round"/>
</g>
</g>
<defs>
<clipPath id="clip0_1077_2817">
<rect width="16" height="16" fill="white" transform="translate(0 0.857178)"/>
</clipPath>
</defs>
</svg>
