<svg width="12" height="13" viewBox="0 0 12 13" fill="none" xmlns="http://www.w3.org/2000/svg">
<path d="M6.8625 11L3.5 7.5V6.5H5.25C5.69167 6.5 6.073 6.35617 6.394 6.0685C6.71467 5.78117 6.90833 5.425 6.975 5H3V4H6.825C6.68333 3.70833 6.473 3.46867 6.194 3.281C5.91467 3.09367 5.6 3 5.25 3H3V2H9V3H7.375C7.49167 3.14167 7.59583 3.29583 7.6875 3.4625C7.77917 3.62917 7.85 3.80833 7.9 4H9V5H7.9875C7.92083 5.70833 7.62917 6.302 7.1125 6.781C6.59583 7.26033 5.975 7.5 5.25 7.5H4.8875L8.25 11H6.8625Z" fill="black"/>
</svg>
