<svg width="24" height="25" viewBox="0 0 24 25" fill="none" xmlns="http://www.w3.org/2000/svg">
<path d="M12 4.25C9.92893 4.25 8.25 5.92893 8.25 8C8.25 10.0711 9.92893 11.75 12 11.75C14.0711 11.75 15.75 10.0711 15.75 8C15.75 5.92893 14.0711 4.25 12 4.25Z" fill="black"/>
<path d="M8 13.75C5.92893 13.75 4.25 15.4289 4.25 17.5V18.6883C4.25 19.4415 4.79588 20.0837 5.53927 20.2051C9.8181 20.9037 14.1819 20.9037 18.4607 20.2051C19.2041 20.0837 19.75 19.4415 19.75 18.6883V17.5C19.75 15.4289 18.0711 13.75 16 13.75H15.6591C15.4746 13.75 15.2913 13.7792 15.1159 13.8364L14.2504 14.1191C12.7881 14.5965 11.2119 14.5965 9.74959 14.1191L8.88407 13.8364C8.70869 13.7792 8.52536 13.75 8.34087 13.75H8Z" fill="black"/>
</svg>
